<?xml version="1.0" encoding="UTF-8" standalone="no"?>
<svg
   xmlns:dc="http://purl.org/dc/elements/1.1/"
   xmlns:cc="http://creativecommons.org/ns#"
   xmlns:rdf="http://www.w3.org/1999/02/22-rdf-syntax-ns#"
   xmlns:svg="http://www.w3.org/2000/svg"
   xmlns="http://www.w3.org/2000/svg"
   xmlns:sodipodi="http://sodipodi.sourceforge.net/DTD/sodipodi-0.dtd"
   xmlns:inkscape="http://www.inkscape.org/namespaces/inkscape"
   width="55.708309mm"
   height="20.801195mm"
   viewBox="0 0 55.70831 20.801194"
   version="1.1"
   id="svg5"
   inkscape:version="1.0.1 (3bc2e813f5, 2020-09-07)"
   sodipodi:docname="DIOMSP - Copy.svg">
  <metadata
     id="metadata18">
    <rdf:RDF>
      <cc:Work
         rdf:about="">
        <dc:format>image/svg+xml</dc:format>
        <dc:type
           rdf:resource="http://purl.org/dc/dcmitype/StillImage" />
        <dc:title></dc:title>
      </cc:Work>
    </rdf:RDF>
  </metadata>
  <sodipodi:namedview
     id="namedview7"
     pagecolor="#ffffff"
     bordercolor="#999999"
     borderopacity="1"
     inkscape:pageshadow="0"
     inkscape:pageopacity="0"
     inkscape:pagecheckerboard="0"
     inkscape:document-units="mm"
     showgrid="false"
     inkscape:zoom="3.623347"
     inkscape:cx="153.28868"
     inkscape:cy="37.599986"
     inkscape:window-width="2560"
     inkscape:window-height="1377"
     inkscape:window-x="-8"
     inkscape:window-y="-8"
     inkscape:window-maximized="1"
     inkscape:current-layer="layer1"
     inkscape:document-rotation="0"
     fit-margin-top="0"
     fit-margin-left="0"
     fit-margin-right="0"
     fit-margin-bottom="0" />
  <defs
     id="defs2" />
  <g
     inkscape:label="Ebene 1"
     inkscape:groupmode="layer"
     id="layer1"
     transform="translate(-72.248771,-146.3633)">
    <path
       d="m 82.812888,154.99528 c 9.430215,-115.804113 4.715107,-57.902056 0,0 z"
       id="path31107"
       sodipodi:nodetypes="cc"
       style="font-size:10.5833px;line-height:1.25;-inkscape-font-specification:'sans-serif, Normal';stroke-width:0.264583" />
    <path
       style="fill:#000000;stroke-width:0.0101298"
       d="m 82.242607,149.48898 c 0.07684,0.0266 0.1441,0.0701 0.211067,0.13636 0.107899,0.10685 0.159951,0.2344 0.159456,0.39074 -4.52e-4,0.16285 -0.05127,0.28231 -0.173876,0.40929 -0.08262,0.0856 -0.08294,0.0861 -0.08294,0.13921 0,0.0596 0.0095,0.0844 0.04982,0.12978 0.04575,0.0515 0.04117,0.0883 -0.01605,0.1291 l -0.03548,0.0253 0.04041,0.0353 c 0.03263,0.0285 0.04041,0.042 0.04041,0.0702 0,0.0277 -0.0071,0.0407 -0.0346,0.0626 -0.0423,0.0339 -0.04321,0.0466 -0.005,0.0703 0.05953,0.0369 0.05885,0.0706 -0.0028,0.13892 l -0.03015,0.0335 0.02659,0.0219 c 0.02408,0.0199 0.05586,0.0704 0.05586,0.0886 0,0.004 -0.01854,0.0253 -0.04119,0.0472 l -0.04119,0.0399 0.04119,0.0399 c 0.02266,0.0219 0.04119,0.0433 0.04119,0.0474 0,0.0157 -0.02336,0.0541 -0.05269,0.0866 l -0.03056,0.0339 0.03669,0.0317 c 0.0499,0.0432 0.05012,0.082 6.79e-4,0.13084 l -0.03596,0.0356 0.02983,0.0331 c 0.06293,0.0699 0.06218,0.0991 -0.0038,0.1462 l -0.03546,0.0253 0.04064,0.0269 c 0.05727,0.0379 0.05815,0.0734 0.0033,0.13302 l -0.03578,0.0389 0.03657,0.0351 c 0.04947,0.0475 0.0501,0.0876 0.0021,0.12793 -0.01904,0.016 -0.03461,0.0339 -0.03461,0.0398 0,0.006 0.01782,0.0291 0.03957,0.0514 0.04742,0.0486 0.0457,0.0666 -0.01155,0.12046 l -0.03981,0.0374 0.03568,0.0232 c 0.06559,0.0425 0.06621,0.0727 0.0029,0.14295 l -0.03015,0.0335 0.02659,0.0219 c 0.01463,0.0121 0.03331,0.0356 0.04153,0.0522 0.01784,0.0363 0.0091,0.0594 -0.03508,0.0924 -0.03461,0.0259 -0.03813,0.0477 -0.0092,0.0574 0.01831,0.006 0.0585,0.0609 0.05859,0.0799 2e-5,0.004 -0.01999,0.0312 -0.04446,0.06 -0.04076,0.0482 -0.04449,0.0571 -0.04449,0.10725 0,0.0642 0.01126,0.0796 0.05882,0.0797 0.0193,0 0.213064,0.0212 0.430582,0.0469 0.217516,0.0257 0.632863,0.0748 0.922993,0.10882 l 0.52751,0.0619 0.04482,-0.0523 c 0.06292,-0.0734 0.10967,-0.0966 0.195362,-0.0971 0.109354,-4.7e-4 0.199726,0.0587 0.238528,0.15622 0.01614,0.0405 0.01772,0.14851 0.003,0.20419 -0.02358,0.0891 -0.135038,0.17281 -0.230487,0.173 -0.07264,1.6e-4 -0.118214,-0.0185 -0.180651,-0.0739 -0.04984,-0.0442 -0.06068,-0.0495 -0.09175,-0.0449 -0.03047,0.004 -0.693005,0.0751 -1.014065,0.10809 -0.409173,0.042 -0.669174,0.0715 -0.673965,0.0765 -0.01047,0.0111 -0.02214,0.78805 -0.03273,2.1812 -0.0058,0.76489 -0.01707,2.15896 -0.02497,3.09795 -0.0079,0.93897 -0.0189,2.28635 -0.02444,2.99416 -0.0055,0.7078 -0.01252,1.59982 -0.01552,1.98226 -0.0097,1.23657 -0.02211,1.8424 -0.03959,1.93118 -0.0246,0.12504 -0.06688,0.23862 -0.203604,0.54694 -0.07031,0.15857 -0.132293,0.3006 -0.137742,0.31563 -0.01146,0.0316 -0.01987,0.0249 -0.0413,-0.0331 -0.0084,-0.0228 -0.05746,-0.13492 -0.108949,-0.24909 -0.11741,-0.26031 -0.179381,-0.42269 -0.210576,-0.55177 -0.02425,-0.1003 -0.02441,-0.10435 -0.03424,-0.85388 -0.0054,-0.41417 -0.01643,-1.62171 -0.02444,-2.68343 -0.008,-1.0617 -0.02118,-2.69863 -0.02928,-3.63762 -0.0081,-0.93898 -0.01953,-2.31903 -0.02543,-3.06681 -0.01087,-1.37845 -0.02028,-1.96067 -0.03182,-1.97279 -0.0055,-0.006 -0.251032,-0.0339 -0.674755,-0.0774 -0.321059,-0.0329 -0.983593,-0.10364 -1.014063,-0.1081 -0.03107,-0.005 -0.04192,7.2e-4 -0.09175,0.0449 -0.06243,0.0555 -0.108016,0.074 -0.180652,0.0739 -0.09545,-1.9e-4 -0.206903,-0.0838 -0.230486,-0.173 -0.01474,-0.0557 -0.01316,-0.16364 0.003,-0.20419 0.03824,-0.0961 0.129747,-0.15611 0.238527,-0.15647 0.08542,-2.4e-4 0.131482,0.0226 0.195646,0.0976 l 0.04511,0.0526 0.472845,-0.0571 c 0.260065,-0.0314 0.69074,-0.0832 0.957057,-0.11509 0.266314,-0.0319 0.489888,-0.063 0.496825,-0.0689 0.01885,-0.0165 0.01647,-0.11852 -0.0031,-0.13518 -0.07992,-0.0678 -0.08489,-0.10405 -0.0225,-0.16394 0.03783,-0.0363 0.03932,-0.0397 0.02021,-0.0461 -0.02551,-0.008 -0.07094,-0.0637 -0.07094,-0.0862 0,-0.009 0.01972,-0.0359 0.0438,-0.0595 l 0.0438,-0.0428 -0.03455,-0.0289 c -0.06705,-0.0562 -0.06419,-0.1081 0.0081,-0.14733 l 0.03129,-0.017 -0.04128,-0.036 c -0.03332,-0.0291 -0.04127,-0.0427 -0.04127,-0.0706 0,-0.0279 0.0079,-0.0415 0.04127,-0.0706 l 0.04128,-0.036 -0.02991,-0.0162 c -0.03211,-0.0174 -0.06251,-0.0585 -0.06251,-0.0845 0,-0.008 0.01851,-0.0348 0.04116,-0.0579 l 0.04115,-0.0419 -0.03621,-0.039 c -0.04891,-0.0525 -0.04818,-0.084 0.003,-0.12719 l 0.03917,-0.0331 -0.03917,-0.0297 c -0.05146,-0.0391 -0.05301,-0.0764 -0.0055,-0.13085 l 0.03372,-0.0386 -0.03866,-0.044 c -0.02127,-0.0243 -0.03866,-0.0518 -0.03866,-0.0614 0,-0.009 0.01807,-0.0355 0.04016,-0.0576 l 0.04016,-0.0401 -0.03522,-0.0432 c -0.04701,-0.0577 -0.04655,-0.0903 0.0018,-0.13265 l 0.03708,-0.0324 -0.03708,-0.0316 c -0.04774,-0.0407 -0.04805,-0.0705 -0.0014,-0.13027 0.03409,-0.0437 0.03489,-0.0464 0.01729,-0.0604 -0.01011,-0.008 -0.02107,-0.0148 -0.02428,-0.0149 -0.0032,-1.7e-4 -0.01402,-0.0163 -0.02399,-0.0357 -0.01709,-0.0334 -0.01718,-0.0369 -0.0014,-0.062 0.0092,-0.0147 0.02998,-0.0339 0.04624,-0.0428 0.03719,-0.0202 0.03724,-0.0316 1.86e-4,-0.0517 -0.03339,-0.0181 -0.04973,-0.0446 -0.04973,-0.0807 0,-0.0248 0.01349,-0.043 0.05866,-0.0789 l 0.02405,-0.0192 -0.02899,-0.019 c -0.03697,-0.0242 -0.0631,-0.0569 -0.06338,-0.0793 -1.13e-4,-0.009 0.0198,-0.0389 0.04427,-0.065 0.04365,-0.0465 0.04449,-0.0486 0.04449,-0.11571 0,-0.0645 -0.0018,-0.07 -0.03213,-0.0959 -0.221992,-0.19072 -0.28592,-0.45802 -0.168854,-0.70604 0.04186,-0.0886 0.149448,-0.1968 0.24494,-0.24616 0.07744,-0.04 0.08032,-0.0407 0.202686,-0.0431 0.08204,-0.002 0.137539,0.002 0.163676,0.0113 z"
       id="path856" />
    <path
       d="m 79.183066,153.68585 q 0,1.11897 -0.490582,2.02848 -0.48507,0.9095 -1.295357,1.41111 -0.56224,0.34727 -1.256772,0.50161 -0.68902,0.15434 -1.819012,0.15434 h -2.072572 v -8.20761 h 2.050523 q 1.201651,0 1.907207,0.17639 0.711068,0.17088 1.20165,0.47405 0.837848,0.52365 1.306382,1.39457 0.468533,0.87093 0.468533,2.06706 z m -1.141016,-0.0165 q 0,-0.96463 -0.336242,-1.62609 -0.336242,-0.66146 -1.003213,-1.0418 -0.48507,-0.27561 -1.030774,-0.38034 -0.545703,-0.11024 -1.306381,-0.11024 h -1.025262 v 6.33347 h 1.025262 q 0.788239,0 1.372527,-0.11575 0.589801,-0.11576 1.080383,-0.42995 0.61185,-0.39137 0.915019,-1.03078 0.308681,-0.63941 0.308681,-1.59852 z"
       style="font-size:11.2889px;line-height:1.25;font-family:sans-serif;stroke-width:0.264583"
       id="path877" />
    <path
       d="m 91.816934,150.51636 q 0.501606,0.55122 0.76619,1.35048 0.270096,0.79926 0.270096,1.8135 0,1.01424 -0.275608,1.81901 -0.270096,0.79927 -0.760678,1.33395 -0.507119,0.55672 -1.201651,0.83784 -0.689019,0.28112 -1.576477,0.28112 -0.865409,0 -1.576477,-0.28663 -0.705557,-0.28663 -1.201651,-0.83233 -0.496094,-0.54571 -0.76619,-1.33946 -0.264583,-0.79375 -0.264583,-1.8135 0,-1.00321 0.264583,-1.79696 0.264584,-0.79927 0.771702,-1.36702 0.48507,-0.54019 1.201651,-0.82682 0.722093,-0.28663 1.570965,-0.28663 0.881945,0 1.58199,0.29214 0.705556,0.28663 1.196138,0.82131 z m -0.09922,3.16398 q 0,-1.59852 -0.716581,-2.46393 -0.71658,-0.87092 -1.956816,-0.87092 -1.25126,0 -1.96784,0.87092 -0.711069,0.86541 -0.711069,2.46393 0,1.61506 0.727605,2.47496 0.727605,0.85439 1.951304,0.85439 1.223699,0 1.945792,-0.85439 0.727605,-0.8599 0.727605,-2.47496 z"
       style="font-size:11.2889px;line-height:1.25;font-family:sans-serif;stroke-width:0.264583"
       id="path881" />
    <path
       d="m 101.89316,157.78139 h -1.09141 v -7.0721 l -2.282032,4.81211 h -0.650434 l -2.265497,-4.81211 v 7.0721 h -1.01975 v -8.20761 h 1.488283 l 2.188327,4.56958 2.116673,-4.56958 h 1.51584 z"
       style="font-size:11.2889px;line-height:1.25;font-family:sans-serif;stroke-width:0.264583"
       id="path883" />
    <path
       d="m 114.03093,155.43872 q 0,0.47956 -0.226,0.94809 -0.22048,0.46853 -0.62287,0.79375 -0.44097,0.35278 -1.03077,0.55122 -0.58429,0.19844 -1.41112,0.19844 -0.88745,0 -1.59852,-0.16537 -0.70556,-0.16536 -1.43868,-0.49058 v -1.36702 h 0.0772 q 0.62288,0.51815 1.43868,0.79927 0.8158,0.28112 1.53238,0.28112 1.01423,0 1.57647,-0.38034 0.56776,-0.38034 0.56776,-1.01424 0,-0.5457 -0.2701,-0.80477 -0.26458,-0.25908 -0.81029,-0.40239 -0.41341,-0.11025 -0.89848,-0.1819 -0.47956,-0.0717 -1.01975,-0.1819 -1.09141,-0.23152 -1.62057,-0.78824 -0.52366,-0.56224 -0.52366,-1.46073 0,-1.03077 0.87092,-1.68672 0.87092,-0.66145 2.21038,-0.66145 0.86541,0 1.5875,0.16536 0.72209,0.16536 1.27882,0.4079 v 1.28984 h -0.0772 q -0.46853,-0.39687 -1.23472,-0.65594 -0.76068,-0.26459 -1.55994,-0.26459 -0.87644,0 -1.41112,0.36381 -0.52916,0.3638 -0.52916,0.93706 0,0.51263 0.26458,0.80478 0.26458,0.29214 0.93156,0.44648 0.35277,0.0772 1.00321,0.18742 0.65043,0.11024 1.10243,0.226 0.91502,0.24253 1.37804,0.73311 0.46302,0.49058 0.46302,1.37253 z"
       style="font-size:11.2889px;line-height:1.25;font-family:sans-serif;stroke-width:0.264583"
       id="path885" />
    <path
       d="m 121.15264,152.05425 q 0,0.54571 -0.19293,1.01424 -0.18741,0.46302 -0.52916,0.80478 -0.42444,0.42443 -1.00322,0.63941 -0.57877,0.20946 -1.46072,0.20946 h -1.0914 v 3.05925 h -1.09141 v -8.20761 h 2.22691 q 0.73863,0 1.25126,0.12678 0.51263,0.12127 0.90951,0.38585 0.46853,0.3142 0.72209,0.78273 0.25907,0.46853 0.25907,1.18511 z m -1.1355,0.0276 q 0,-0.42444 -0.14883,-0.73863 -0.14883,-0.3142 -0.452,-0.51263 -0.26458,-0.17088 -0.60634,-0.24254 -0.33624,-0.0772 -0.85438,-0.0772 h -1.08038 v 3.27973 h 0.92053 q 0.66145,0 1.07487,-0.11575 0.41341,-0.12127 0.67248,-0.38034 0.25907,-0.26458 0.3638,-0.55673 0.11025,-0.29214 0.11025,-0.65594 z"
       style="font-size:11.2889px;line-height:1.25;font-family:sans-serif;stroke-width:0.264583"
       id="path887" />
    <g
       aria-label="35"
       id="text870"
       style="font-size:5.64444px;line-height:1.25;font-family:sans-serif;stroke-width:0.264583">
      <path
         d="m 124.0407,148.57649 q 0.13229,0.11851 0.21773,0.29766 0.0854,0.17914 0.0854,0.46302 0,0.28112 -0.10198,0.51538 -0.10197,0.23427 -0.28663,0.4079 -0.20671,0.19293 -0.48782,0.28663 -0.27837,0.091 -0.61185,0.091 -0.34176,0 -0.67249,-0.0827 -0.33072,-0.0799 -0.54294,-0.17639 v -0.57602 h 0.0413 q 0.23427,0.15434 0.55121,0.25632 0.31695,0.10197 0.61185,0.10197 0.17364,0 0.36932,-0.0579 0.19568,-0.0579 0.31694,-0.17088 0.12678,-0.12127 0.18742,-0.26734 0.0634,-0.14607 0.0634,-0.36931 0,-0.22049 -0.0717,-0.3638 -0.0689,-0.14608 -0.19293,-0.22876 -0.12402,-0.0854 -0.30041,-0.11575 -0.17639,-0.0331 -0.38034,-0.0331 h -0.24804 v -0.45751 h 0.19292 q 0.41893,0 0.66697,-0.17363 0.25081,-0.17639 0.25081,-0.51263 0,-0.14883 -0.0634,-0.25907 -0.0634,-0.113 -0.17639,-0.18466 -0.11851,-0.0717 -0.25356,-0.0992 -0.13505,-0.0276 -0.30593,-0.0276 -0.26182,0 -0.55672,0.0937 -0.2949,0.0937 -0.55673,0.26458 h -0.0276 v -0.57601 q 0.19568,-0.0965 0.5209,-0.17639 0.32797,-0.0827 0.63389,-0.0827 0.30042,0 0.52917,0.0551 0.22875,0.0551 0.41341,0.17638 0.19844,0.1323 0.30041,0.31971 0.10198,0.18741 0.10198,0.43821 0,0.34176 -0.24254,0.59807 -0.23977,0.25356 -0.56775,0.31971 v 0.0386 q 0.13229,0.0221 0.30317,0.0937 0.17088,0.0689 0.28939,0.17363 z"
         style="font-size:5.64444px;stroke-width:0.264583"
         id="path872" />
      <path
         d="m 127.95708,149.24897 q 0,0.28664 -0.10473,0.54846 -0.10473,0.26183 -0.28663,0.44097 -0.19844,0.19293 -0.47405,0.29766 -0.27285,0.10198 -0.63389,0.10198 -0.33625,0 -0.64768,-0.0717 -0.31144,-0.0689 -0.52641,-0.16812 v -0.58153 h 0.0386 q 0.226,0.14331 0.52917,0.24529 0.30317,0.0992 0.59531,0.0992 0.19568,0 0.37758,-0.0551 0.18466,-0.0551 0.32798,-0.19292 0.12126,-0.11851 0.1819,-0.28388 0.0634,-0.16536 0.0634,-0.38309 0,-0.21222 -0.0744,-0.35829 -0.0716,-0.14607 -0.20119,-0.23427 -0.14332,-0.10473 -0.35002,-0.14607 -0.20395,-0.0441 -0.45751,-0.0441 -0.24253,0 -0.46853,0.0331 -0.22324,0.0331 -0.38585,0.0661 v -2.11391 h 2.46944 v 0.48232 H 125.992 v 1.0914 q 0.11851,-0.011 0.24253,-0.0165 0.12403,-0.006 0.21498,-0.006 0.33348,0 0.58429,0.0579 0.2508,0.0551 0.46026,0.19844 0.22049,0.15158 0.34175,0.39136 0.12127,0.23978 0.12127,0.60082 z"
         style="font-size:5.64444px;stroke-width:0.264583"
         id="path874" />
    </g>
  </g>
</svg>
