M48
; DRILL file {KiCad (6.0.4)} date Mon Jun 27 23:05:49 2022
; FORMAT={-:-/ absolute / inch / decimal}
; #@! TF.CreationDate,2022-06-27T23:05:49+02:00
; #@! TF.GenerationSoftware,Kicad,Pcbnew,(6.0.4)
; #@! TF.FileFunction,NonPlated,1,2,NPTH
FMAT,2
INCH
; #@! TA.AperFunction,NonPlated,NPTH,ComponentDrill
T1C0.0335
; #@! TA.AperFunction,NonPlated,NPTH,ComponentDrill
T2C0.0748
; #@! TA.AperFunction,NonPlated,NPTH,ComponentDrill
T3C0.0866
; #@! TA.AperFunction,NonPlated,NPTH,ComponentDrill
T4C0.1988
%
G90
G05
T1
X7.34Y-3.4409
X7.34Y-3.5591
T2
X3.0655Y-2.6751
X3.128Y-3.4251
X3.1905Y-4.1751
X3.497Y-2.6374
X3.5595Y-3.3874
X3.622Y-4.1374
X3.971Y-2.0
X3.971Y-2.75
X3.971Y-3.5
X4.404Y-2.0
X4.404Y-2.75
X4.404Y-3.5
X4.721Y-1.625
X4.721Y-2.375
X4.721Y-3.125
X5.154Y-1.625
X5.154Y-2.375
X5.154Y-3.125
X5.471Y-1.8438
X5.471Y-2.5938
X5.471Y-3.3438
X5.904Y-1.8438
X5.904Y-2.5938
X5.904Y-3.3438
X5.9147Y-4.375
X6.221Y-2.0
X6.221Y-2.75
X6.221Y-3.5
X6.3478Y-4.375
X6.654Y-2.0
X6.654Y-2.75
X6.654Y-3.5
X7.0377Y-4.6154
X7.1498Y-4.1971
X7.6897Y-5.1962
X7.8728Y-4.8038
T3
X2.9724Y-2.3937
X3.1457Y-4.4646
X3.72Y-4.41
X3.9Y-1.715
X4.4764Y-3.7874
X4.655Y-1.345
X5.2205Y-1.3425
X5.3125Y-2.5
X5.85Y-4.655
X6.915Y-1.845
X6.915Y-3.135
X6.965Y-4.855
X7.3125Y-3.8125
X7.83Y-1.845
X7.83Y-3.135
X7.8386Y-5.5472
X8.2362Y-4.6929
T4
X3.2812Y-2.6562
X3.3438Y-3.4062
X3.4062Y-4.1562
X4.1875Y-2.0
X4.1875Y-2.75
X4.1875Y-3.5
X4.9375Y-1.625
X4.9375Y-2.375
X4.9375Y-3.125
X5.6875Y-1.8438
X5.6875Y-2.5938
X5.6875Y-3.3438
X6.1312Y-4.375
X6.4375Y-2.0
X6.4375Y-2.75
X6.4375Y-3.5
X7.0938Y-4.4062
X7.7812Y-5.0
T0
M30
