M48
; DRILL file {KiCad (6.0.4)} date Sun May 15 23:18:23 2022
; FORMAT={-:-/ absolute / inch / decimal}
; #@! TF.CreationDate,2022-05-15T23:18:23+02:00
; #@! TF.GenerationSoftware,Kicad,Pcbnew,(6.0.4)
; #@! TF.FileFunction,Plated,1,2,PTH
FMAT,2
INCH
; #@! TA.AperFunction,Plated,PTH,ViaDrill
T1C0.0157
; #@! TA.AperFunction,Plated,PTH,ComponentDrill
T2C0.0394
; #@! TA.AperFunction,Plated,PTH,ComponentDrill
T3C0.0430
; #@! TA.AperFunction,Plated,PTH,ComponentDrill
T4C0.0591
%
G90
G05
T1
X7.47Y-2.495
X7.56Y-2.495
T2
X7.0008Y-3.5847
X7.0992Y-3.5847
T3
X7.072Y-1.8345
X7.072Y-1.9345
X7.072Y-2.0345
X7.072Y-2.1345
X7.072Y-2.2345
X7.072Y-2.3345
X7.072Y-2.4345
X7.072Y-2.5345
X7.072Y-2.6345
X7.072Y-2.7345
X7.072Y-2.8345
X7.072Y-2.9345
X7.072Y-3.0345
X7.172Y-2.8345
X7.272Y-2.8345
X7.372Y-2.8345
X7.672Y-1.8345
X7.672Y-1.9345
X7.672Y-2.0345
X7.672Y-2.1345
X7.672Y-2.2345
X7.672Y-2.3345
X7.672Y-2.4345
X7.672Y-2.5345
X7.672Y-2.6345
X7.672Y-2.7345
X7.672Y-2.8345
X7.672Y-2.9345
X7.672Y-3.0345
T4
X3.1231Y-2.5697
X3.1642Y-2.4657
X3.1856Y-3.3197
X3.2267Y-3.2157
X3.2481Y-4.0697
X3.2892Y-3.9657
X3.3634Y-2.4483
X3.422Y-2.5436
X3.4259Y-3.1983
X3.4845Y-3.2936
X3.4884Y-3.9483
X3.547Y-4.0436
X4.0375Y-1.9
X4.0375Y-2.65
X4.0375Y-3.4
X4.0875Y-1.8
X4.0875Y-2.55
X4.0875Y-3.3
X4.2875Y-1.8
X4.2875Y-2.55
X4.2875Y-3.3
X4.3375Y-1.9
X4.3375Y-2.65
X4.3375Y-3.4
X4.7875Y-1.525
X4.7875Y-2.275
X4.7875Y-3.025
X4.8375Y-1.425
X4.8375Y-2.175
X4.8375Y-2.925
X5.0375Y-1.425
X5.0375Y-2.175
X5.0375Y-2.925
X5.0875Y-1.525
X5.0875Y-2.275
X5.0875Y-3.025
X5.5375Y-1.7437
X5.5375Y-2.4937
X5.5375Y-3.2437
X5.5875Y-1.6438
X5.5875Y-2.3937
X5.5875Y-3.1437
X5.7875Y-1.6438
X5.7875Y-2.3937
X5.7875Y-3.1437
X5.8375Y-1.7437
X5.8375Y-2.4937
X5.8375Y-3.2437
X5.9813Y-4.275
X6.0312Y-4.175
X6.2313Y-4.175
X6.2812Y-4.275
X6.2875Y-1.9
X6.2875Y-2.65
X6.2875Y-3.4
X6.3375Y-1.8
X6.3375Y-2.55
X6.3375Y-3.3
X6.5375Y-1.8
X6.5375Y-2.55
X6.5375Y-3.3
X6.5875Y-1.9
X6.5875Y-2.65
X6.5875Y-3.4
X6.8747Y-4.4511
X6.9264Y-4.2579
X6.9583Y-4.5253
X7.036Y-4.2355
X7.5577Y-5.0061
X7.6272Y-5.0937
X7.6423Y-4.8248
X7.754Y-4.8218
T0
M30
