%TF.GenerationSoftware,KiCad,Pcbnew,(6.0.4)*%
%TF.CreationDate,2022-05-25T19:26:06+02:00*%
%TF.ProjectId,Diom-35SP_PCB-rounded,44696f6d-2d33-4355-9350-5f5043422d72,rev?*%
%TF.SameCoordinates,Original*%
%TF.FileFunction,Profile,NP*%
%FSLAX46Y46*%
G04 Gerber Fmt 4.6, Leading zero omitted, Abs format (unit mm)*
G04 Created by KiCad (PCBNEW (6.0.4)) date 2022-05-25 19:26:06*
%MOMM*%
%LPD*%
G01*
G04 APERTURE LIST*
%TA.AperFunction,Profile*%
%ADD10C,0.100000*%
%TD*%
G04 APERTURE END LIST*
D10*
X188041581Y-84455000D02*
X188019279Y-97000000D01*
X93662500Y-56356250D02*
X74700000Y-58200000D01*
X77118750Y-114018750D02*
X72600000Y-60600000D01*
X135604250Y-33337500D02*
G75*
G03*
X133223000Y-30956250I-2381250J0D01*
G01*
X212305955Y-120436981D02*
G75*
G03*
X210805148Y-116739019I-2600855J1097981D01*
G01*
X134143750Y-92075000D02*
G75*
G03*
X131762500Y-89693750I-2381250J0D01*
G01*
X77118700Y-114018750D02*
G75*
G03*
X79500000Y-116400000I2381300J50D01*
G01*
X134143700Y-92868750D02*
G75*
G03*
X136525000Y-95250000I2381300J50D01*
G01*
X135604250Y-34131250D02*
X135604250Y-33337500D01*
X190422831Y-82042000D02*
X198882000Y-82042000D01*
X145256250Y-119411750D02*
X145256250Y-97282000D01*
X189800000Y-99300000D02*
X192100000Y-99900000D01*
X198882000Y-44450000D02*
X176212500Y-44450000D01*
X119000000Y-89700050D02*
G75*
G03*
X116618750Y-92081250I0J-2381250D01*
G01*
X202400000Y-141900000D02*
X212306000Y-120437000D01*
X112712500Y-40481250D02*
X98425000Y-40481250D01*
X166100038Y-122699983D02*
G75*
G03*
X164200000Y-121443750I-1923338J-844017D01*
G01*
X154781280Y-38544495D02*
G75*
G03*
X152400000Y-36512500I-2381280J-379305D01*
G01*
X95250000Y-115093750D02*
G75*
G03*
X97631250Y-112712500I0J2381250D01*
G01*
X119000000Y-89700000D02*
X131762500Y-89693750D01*
X74700000Y-58200000D02*
G75*
G03*
X72600000Y-60600000I169200J-2266800D01*
G01*
X167600000Y-124000000D02*
X183821545Y-128377243D01*
X190422831Y-82042073D02*
G75*
G03*
X188041581Y-84455000I-31J-2381427D01*
G01*
X183515000Y-136779000D02*
X198209000Y-143805000D01*
X98425000Y-40481250D02*
G75*
G03*
X96043750Y-42862500I0J-2381250D01*
G01*
X173831239Y-42513252D02*
G75*
G03*
X171450000Y-40481250I-2381239J-379248D01*
G01*
X192408178Y-105579839D02*
G75*
G03*
X193600000Y-108400000I2172122J-743961D01*
G01*
X112712500Y-40481250D02*
G75*
G03*
X115093750Y-38100000I0J2381250D01*
G01*
X210805148Y-116739019D02*
X193600000Y-108400000D01*
X116618750Y-92081250D02*
X116600000Y-96837500D01*
X95250000Y-115093750D02*
X79500000Y-116400000D01*
X173831217Y-42513257D02*
G75*
G03*
X176212500Y-44450000I2381283J495557D01*
G01*
X184893395Y-130899953D02*
G75*
G03*
X183821545Y-128377243I-1452895J871753D01*
G01*
X136525000Y-95250000D02*
X142875000Y-95250000D01*
X193400000Y-102200000D02*
G75*
G03*
X192100000Y-99900000I-1800000J500000D01*
G01*
X183133962Y-134619979D02*
G75*
G03*
X183515000Y-136779000I1569038J-836221D01*
G01*
X201263200Y-46831250D02*
G75*
G03*
X198882000Y-44450000I-2381300J-50D01*
G01*
X114218750Y-99218800D02*
G75*
G03*
X116600000Y-96837500I-50J2381300D01*
G01*
X114218750Y-99218750D02*
X99218750Y-99218750D01*
X198208985Y-143805034D02*
G75*
G03*
X202400000Y-141900000I1264215J2781334D01*
G01*
X115093750Y-33337500D02*
X115093750Y-38100000D01*
X201263250Y-46831250D02*
X201263250Y-79660750D01*
X145256261Y-119411748D02*
G75*
G03*
X147637500Y-121443750I2381239J379248D01*
G01*
X192408183Y-105579841D02*
X193400000Y-102200000D01*
X96043750Y-42862500D02*
X96043750Y-53975000D01*
X171450000Y-40481250D02*
X157162500Y-40481250D01*
X99218750Y-99218700D02*
G75*
G03*
X96837500Y-101600000I50J-2381300D01*
G01*
X134143750Y-92075000D02*
X134143750Y-92868750D01*
X96837500Y-101600000D02*
X97631250Y-112712500D01*
X198882000Y-82042050D02*
G75*
G03*
X201263250Y-79660750I-100J2381350D01*
G01*
X166100026Y-122699988D02*
G75*
G03*
X167600000Y-124000000I2180974J1001088D01*
G01*
X133223000Y-30956250D02*
X117475000Y-30956250D01*
X152400000Y-36512500D02*
X138004250Y-36512500D01*
X188019273Y-97000000D02*
G75*
G03*
X189800000Y-99300000I2238027J-106600D01*
G01*
X184893473Y-130900000D02*
X183134000Y-134620000D01*
X93662500Y-56356250D02*
G75*
G03*
X96043750Y-53975000I-604600J2985850D01*
G01*
X135604274Y-34131250D02*
G75*
G03*
X138004250Y-36512500I2400026J18850D01*
G01*
X154781256Y-38544499D02*
G75*
G03*
X157162500Y-40481250I2381244J495499D01*
G01*
X145256280Y-97281995D02*
G75*
G03*
X142875000Y-95250000I-2381280J-379305D01*
G01*
X147637500Y-121443750D02*
X164200000Y-121443750D01*
X117475000Y-30956250D02*
G75*
G03*
X115093750Y-33337500I0J-2381250D01*
G01*
M02*
