%TF.GenerationSoftware,KiCad,Pcbnew,(6.0.4)*%
%TF.CreationDate,2022-06-27T23:06:27+02:00*%
%TF.ProjectId,Diom-35SP_PCB-rounded,44696f6d-2d33-4355-9350-5f5043422d72,rev?*%
%TF.SameCoordinates,Original*%
%TF.FileFunction,Soldermask,Top*%
%TF.FilePolarity,Negative*%
%FSLAX46Y46*%
G04 Gerber Fmt 4.6, Leading zero omitted, Abs format (unit mm)*
G04 Created by KiCad (PCBNEW (6.0.4)) date 2022-06-27 23:06:27*
%MOMM*%
%LPD*%
G01*
G04 APERTURE LIST*
G04 Aperture macros list*
%AMRoundRect*
0 Rectangle with rounded corners*
0 $1 Rounding radius*
0 $2 $3 $4 $5 $6 $7 $8 $9 X,Y pos of 4 corners*
0 Add a 4 corners polygon primitive as box body*
4,1,4,$2,$3,$4,$5,$6,$7,$8,$9,$2,$3,0*
0 Add four circle primitives for the rounded corners*
1,1,$1+$1,$2,$3*
1,1,$1+$1,$4,$5*
1,1,$1+$1,$6,$7*
1,1,$1+$1,$8,$9*
0 Add four rect primitives between the rounded corners*
20,1,$1+$1,$2,$3,$4,$5,0*
20,1,$1+$1,$4,$5,$6,$7,0*
20,1,$1+$1,$6,$7,$8,$9,0*
20,1,$1+$1,$8,$9,$2,$3,0*%
G04 Aperture macros list end*
%ADD10C,1.900000*%
%ADD11C,5.050000*%
%ADD12C,2.200000*%
%ADD13RoundRect,0.250000X-0.600000X-0.750000X0.600000X-0.750000X0.600000X0.750000X-0.600000X0.750000X0*%
%ADD14O,1.700000X2.000000*%
%ADD15C,1.752600*%
%ADD16C,0.850000*%
G04 APERTURE END LIST*
D10*
%TO.C,MX2*%
X111862500Y-50800000D03*
X100862500Y-50800000D03*
D11*
X106362500Y-50800000D03*
%TD*%
D10*
%TO.C,MX16*%
X150233750Y-111125000D03*
X161233750Y-111125000D03*
D11*
X155733750Y-111125000D03*
%TD*%
D10*
%TO.C,MX7*%
X100862500Y-69850000D03*
X111862500Y-69850000D03*
D11*
X106362500Y-69850000D03*
%TD*%
D12*
%TO.C,H8*%
X175641000Y-79629000D03*
%TD*%
D11*
%TO.C,MX14*%
X144462500Y-84931250D03*
D10*
X149962500Y-84931250D03*
X138962500Y-84931250D03*
%TD*%
%TO.C,MX1*%
X77864679Y-67948107D03*
X88822821Y-66989393D03*
D11*
X83343750Y-67468750D03*
%TD*%
D13*
%TO.C,J1*%
X177820000Y-91051500D03*
D14*
X180320000Y-91051500D03*
%TD*%
D12*
%TO.C,H12*%
X176911000Y-123317000D03*
%TD*%
%TO.C,H13*%
X134937500Y-63500000D03*
%TD*%
%TO.C,H11*%
X185737500Y-96837500D03*
%TD*%
D11*
%TO.C,MX6*%
X84931250Y-86518750D03*
D10*
X79452179Y-86998107D03*
X90410321Y-86039393D03*
%TD*%
D12*
%TO.C,H2*%
X79900000Y-113400000D03*
%TD*%
%TO.C,H6*%
X113700000Y-96200000D03*
%TD*%
D10*
%TO.C,MX5*%
X158012500Y-50800000D03*
X169012500Y-50800000D03*
D11*
X163512500Y-50800000D03*
%TD*%
D12*
%TO.C,H9*%
X198882000Y-46863000D03*
%TD*%
D10*
%TO.C,MX9*%
X149962500Y-65881250D03*
D11*
X144462500Y-65881250D03*
D10*
X138962500Y-65881250D03*
%TD*%
D11*
%TO.C,MX17*%
X180181250Y-111918750D03*
D10*
X181604755Y-106606158D03*
X178757745Y-117231342D03*
%TD*%
%TO.C,MX3*%
X130912500Y-41275000D03*
D11*
X125412500Y-41275000D03*
D10*
X119912500Y-41275000D03*
%TD*%
D12*
%TO.C,H7*%
X175641000Y-46863000D03*
%TD*%
D10*
%TO.C,MX13*%
X130912500Y-79375000D03*
D11*
X125412500Y-79375000D03*
D10*
X119912500Y-79375000D03*
%TD*%
D12*
%TO.C,H1*%
X75500000Y-60800000D03*
%TD*%
%TO.C,H4*%
X199100000Y-140900000D03*
%TD*%
D15*
%TO.C,U1*%
X179627831Y-49135500D03*
X179627831Y-51675500D03*
X179627831Y-54215500D03*
X179627831Y-56755500D03*
X179627831Y-59295500D03*
X179627831Y-61835500D03*
X179627831Y-64375500D03*
X179627831Y-66915500D03*
X179627831Y-69455500D03*
X179627831Y-71995500D03*
X179627831Y-74535500D03*
X179627831Y-77075500D03*
X194867831Y-77075500D03*
X194867831Y-74535500D03*
X194867831Y-71995500D03*
X194867831Y-69455500D03*
X194867831Y-66915500D03*
X194867831Y-64375500D03*
X194867831Y-61835500D03*
X194867831Y-59295500D03*
X194867831Y-56755500D03*
X194867831Y-54215500D03*
X194867831Y-51675500D03*
X194867831Y-49135500D03*
X179627831Y-46595500D03*
X182167831Y-71995500D03*
X184707831Y-71995500D03*
X187247831Y-71995500D03*
X194867831Y-46595500D03*
%TD*%
D12*
%TO.C,H17*%
X99060000Y-43561000D03*
%TD*%
D11*
%TO.C,MX15*%
X163512500Y-88900000D03*
D10*
X169012500Y-88900000D03*
X158012500Y-88900000D03*
%TD*%
D11*
%TO.C,MX12*%
X106362500Y-88900000D03*
D10*
X100862500Y-88900000D03*
X111862500Y-88900000D03*
%TD*%
D12*
%TO.C,H3*%
X209200000Y-119200000D03*
%TD*%
%TO.C,H14*%
X148590000Y-118237000D03*
%TD*%
D11*
%TO.C,MX18*%
X197643750Y-127000000D03*
D10*
X199968150Y-122015307D03*
X195319350Y-131984693D03*
%TD*%
%TO.C,MX4*%
X149962500Y-46831250D03*
D11*
X144462500Y-46831250D03*
D10*
X138962500Y-46831250D03*
%TD*%
D12*
%TO.C,H10*%
X198882000Y-79629000D03*
%TD*%
D11*
%TO.C,MX10*%
X163512500Y-69850000D03*
D10*
X169012500Y-69850000D03*
X158012500Y-69850000D03*
%TD*%
%TO.C,MX8*%
X119912500Y-60325000D03*
X130912500Y-60325000D03*
D11*
X125412500Y-60325000D03*
%TD*%
D12*
%TO.C,H18*%
X94488000Y-112014000D03*
%TD*%
D10*
%TO.C,MX11*%
X81039679Y-106048107D03*
X91997821Y-105089393D03*
D11*
X86518750Y-105568750D03*
%TD*%
D12*
%TO.C,H15*%
X118237000Y-34163000D03*
%TD*%
%TO.C,H5*%
X132600000Y-34100000D03*
%TD*%
D16*
%TO.C,SW1*%
X186436000Y-87400000D03*
X186436000Y-90400000D03*
%TD*%
M02*
