M48
; DRILL file {KiCad (6.0.4)} date Mon Jun 27 23:05:49 2022
; FORMAT={-:-/ absolute / inch / decimal}
; #@! TF.CreationDate,2022-06-27T23:05:49+02:00
; #@! TF.GenerationSoftware,Kicad,Pcbnew,(6.0.4)
; #@! TF.FileFunction,Plated,1,2,PTH
FMAT,2
INCH
; #@! TA.AperFunction,Plated,PTH,ViaDrill
T1C0.0157
; #@! TA.AperFunction,Plated,PTH,ComponentDrill
T2C0.0394
; #@! TA.AperFunction,Plated,PTH,ComponentDrill
T3C0.0430
; #@! TA.AperFunction,Plated,PTH,ComponentDrill
T4C0.0472
; #@! TA.AperFunction,Plated,PTH,ComponentDrill
T5C0.0630
%
G90
G05
T1
X7.47Y-2.495
X7.56Y-2.495
T2
X7.0008Y-3.5847
X7.0992Y-3.5847
T3
X7.072Y-1.8345
X7.072Y-1.9345
X7.072Y-2.0345
X7.072Y-2.1345
X7.072Y-2.2345
X7.072Y-2.3345
X7.072Y-2.4345
X7.072Y-2.5345
X7.072Y-2.6345
X7.072Y-2.7345
X7.072Y-2.8345
X7.072Y-2.9345
X7.072Y-3.0345
X7.172Y-2.8345
X7.272Y-2.8345
X7.372Y-2.8345
X7.672Y-1.8345
X7.672Y-1.9345
X7.672Y-2.0345
X7.672Y-2.1345
X7.672Y-2.2345
X7.672Y-2.3345
X7.672Y-2.4345
X7.672Y-2.5345
X7.672Y-2.6345
X7.672Y-2.7345
X7.672Y-2.8345
X7.672Y-2.9345
X7.672Y-3.0345
T4
X3.0721Y-2.5244
X3.1346Y-3.2744
X3.1971Y-4.0244
X3.261Y-2.4249
X3.261Y-2.4249
X3.3235Y-3.1749
X3.3235Y-3.1749
X3.386Y-3.9249
X3.386Y-3.9249
X3.4643Y-2.4901
X3.5268Y-3.2401
X3.5893Y-3.9901
X3.9906Y-1.8504
X3.9906Y-2.6004
X3.9906Y-3.3504
X4.1875Y-1.7677
X4.1875Y-1.7677
X4.1875Y-2.5177
X4.1875Y-2.5177
X4.1875Y-3.2677
X4.1875Y-3.2677
X4.3844Y-1.8504
X4.3844Y-2.6004
X4.3844Y-3.3504
X4.7406Y-1.4754
X4.7406Y-2.2254
X4.7406Y-2.9754
X4.9375Y-1.3927
X4.9375Y-1.3927
X4.9375Y-2.1427
X4.9375Y-2.1427
X4.9375Y-2.8927
X4.9375Y-2.8927
X5.1344Y-1.4754
X5.1344Y-2.2254
X5.1344Y-2.9754
X5.4906Y-1.6941
X5.4906Y-2.4441
X5.4906Y-3.1941
X5.6875Y-1.6115
X5.6875Y-1.6115
X5.6875Y-2.3615
X5.6875Y-2.3615
X5.6875Y-3.1115
X5.6875Y-3.1115
X5.8844Y-1.6941
X5.8844Y-2.4441
X5.8844Y-3.1941
X5.9344Y-4.2254
X6.1312Y-4.1427
X6.1312Y-4.1427
X6.2406Y-1.8504
X6.2406Y-2.6004
X6.2406Y-3.3504
X6.3281Y-4.2254
X6.4375Y-1.7677
X6.4375Y-1.7677
X6.4375Y-2.5177
X6.4375Y-2.5177
X6.4375Y-3.2677
X6.4375Y-3.2677
X6.6344Y-1.8504
X6.6344Y-2.6004
X6.6344Y-3.3504
X6.8694Y-4.3461
X6.8694Y-4.3461
X6.8983Y-4.5577
X7.0002Y-4.1774
X7.5625Y-5.1152
X7.5707Y-4.9018
X7.5707Y-4.9018
X7.7289Y-4.7584
T5
X3.1028Y-2.8754
X3.1653Y-3.6254
X3.2278Y-4.3754
X3.495Y-2.8411
X3.5575Y-3.5911
X3.62Y-4.3411
X3.9906Y-2.2028
X3.9906Y-2.9528
X3.9906Y-3.7028
X4.3844Y-2.2028
X4.3844Y-2.9528
X4.3844Y-3.7028
X4.7406Y-1.8278
X4.7406Y-2.5778
X4.7406Y-3.3278
X5.1344Y-1.8278
X5.1344Y-2.5778
X5.1344Y-3.3278
X5.4906Y-2.0465
X5.4906Y-2.7965
X5.4906Y-3.5465
X5.8844Y-2.0465
X5.8844Y-2.7965
X5.8844Y-3.5465
X5.9344Y-4.5778
X6.2406Y-2.2028
X6.2406Y-2.9528
X6.2406Y-3.7028
X6.3281Y-4.5778
X6.6344Y-2.2028
X6.6344Y-2.9528
X6.6344Y-3.7028
X7.2386Y-4.6489
X7.3405Y-4.2686
X7.8818Y-5.2641
X8.0482Y-4.9073
T0
M30
