<?xml version="1.0" encoding="UTF-8" standalone="no"?>
<svg
   xmlns:dc="http://purl.org/dc/elements/1.1/"
   xmlns:cc="http://creativecommons.org/ns#"
   xmlns:rdf="http://www.w3.org/1999/02/22-rdf-syntax-ns#"
   xmlns:svg="http://www.w3.org/2000/svg"
   xmlns="http://www.w3.org/2000/svg"
   width="139.43658mm"
   height="185.59021mm"
   viewBox="0 0 139.43658 185.59021"
   version="1.1"
   id="svg8">
  <defs
     id="defs2" />
  <metadata
     id="metadata5">
    <rdf:RDF>
      <cc:Work
         rdf:about="">
        <dc:format>image/svg+xml</dc:format>
        <dc:type
           rdf:resource="http://purl.org/dc/dcmitype/StillImage" />
        <dc:title></dc:title>
      </cc:Work>
    </rdf:RDF>
  </metadata>
  <g
     id="layer1"
     transform="translate(-37.125909,-68.308951)">
    <path
       style="fill:#000000;stroke-width:0.264583"
       d="m 95.331096,253.61845 c -2.92605,-0.32615 -9.691338,-1.28158 -10.980213,-1.55069 -0.218282,-0.0456 -1.021953,-0.17395 -1.785938,-0.28528 -0.763984,-0.11132 -1.389062,-0.32598 -1.389062,-0.477 0,-0.15103 -0.07834,-0.19626 -0.174094,-0.1005 -0.09575,0.0958 -0.333877,0.0415 -0.529166,-0.12059 -0.267647,-0.22213 -0.356071,-0.20528 -0.359125,0.0684 -0.0033,0.293 -0.04627,0.29656 -0.222683,0.0184 -0.120248,-0.18958 -0.326785,-0.31918 -0.458971,-0.288 -0.370845,0.0875 -1.789054,-0.55262 -1.613453,-0.72822 0.08551,-0.0855 0.536512,-0.0226 1.002218,0.1397 0.465707,0.16235 1.193986,0.29517 1.618398,0.29517 0.424416,0 1.019281,0.13253 1.321928,0.2945 0.804127,0.43035 2.410219,0.52395 2.645309,0.15415 0.132152,-0.20787 0.20251,-0.14246 0.205171,0.19076 0.0021,0.27892 0.08239,0.42878 0.178144,0.33303 0.09575,-0.0958 0.304112,-0.0725 0.463021,0.0516 0.158912,0.12415 0.824709,0.29736 1.479553,0.38489 0.654844,0.0875 2.785473,0.40211 4.734733,0.69905 4.53135,0.69028 11.078824,0.92367 15.638184,0.55745 1.96454,-0.1578 3.81,-0.3319 4.10105,-0.3869 0.29104,-0.055 1.18401,-0.18025 1.98437,-0.27834 2.55213,-0.31279 7.14375,-1.30471 7.14375,-1.54325 0,-0.12665 -0.26789,-0.19565 -0.59531,-0.15335 -0.32742,0.0423 -0.72325,-0.003 -0.87962,-0.10028 -0.15637,-0.0975 -0.98981,-0.009 -1.85209,0.19718 -0.86227,0.2059 -1.89893,0.37862 -2.30368,0.3838 -0.4086,0.005 -0.80479,0.18894 -0.89079,0.41305 -0.11136,0.2902 -0.24812,0.32625 -0.48665,0.12829 -0.18769,-0.15576 -0.77748,-0.20359 -1.35816,-0.11013 -0.56452,0.0909 -1.38359,0.21639 -1.82016,0.27897 -1.8538,0.26572 -14.957484,0.2993 -16.801044,0.043 -1.09141,-0.15171 -2.57969,-0.29307 -3.30729,-0.31414 -0.72761,-0.0211 -1.56104,-0.17165 -1.85208,-0.3346 -0.29105,-0.16296 -1.42214,-0.49177 -2.513547,-0.73069 -6.420903,-1.40563 -13.103976,-3.98531 -16.817737,-6.4917 -0.645171,-0.43542 -1.079251,-0.60673 -0.99749,-0.39366 0.214172,0.55813 -0.545393,0.46364 -1.087392,-0.13526 -0.255093,-0.28187 -0.390761,-0.63068 -0.301488,-0.77513 0.08928,-0.14445 -0.524139,-0.7915 -1.363141,-1.4379 -1.383985,-1.06628 -2.95189,-2.63181 -4.472565,-4.4658 -0.311218,-0.37534 -0.682434,-0.72655 -0.82492,-0.78045 -0.327195,-0.12379 -0.704718,-1.29227 -0.412994,-1.27826 0.118949,0.006 0.867275,0.84983 1.662952,1.87582 3.039313,3.91907 9.109723,8.19535 14.91768,10.5087 3.000036,1.19493 10.044443,3.29106 12.078342,3.59402 0.65485,0.0976 2.32172,0.36948 3.70417,0.6043 3.75957,0.63858 14.763754,0.54404 19.579174,-0.16822 7.3692,-1.09 13.5213,-2.57109 19.71146,-4.74545 8.08816,-2.84106 14.59486,-5.43451 16.00729,-6.38021 0.3638,-0.24358 1.07818,-0.65239 1.5875,-0.90846 1.85129,-0.93077 2.2672,-1.20134 3.28887,-2.13953 l 1.03992,-0.95495 -0.77534,-0.41743 c -0.70764,-0.38099 -8.91904,-3.235 -12.1969,-4.23923 l -1.36742,-0.41894 -2.05616,0.98922 c -8.19414,3.94218 -15.83788,6.06913 -25.76839,7.1703 -3.23835,0.3591 -5.35333,0.42139 -10.05417,0.2961 -6.567254,-0.17504 -8.713834,-0.40331 -13.229167,-1.40684 -4.366742,-0.9705 -6.588303,-1.74297 -10.188279,-3.54262 -3.367921,-1.68365 -8.627394,-5.53778 -9.163905,-6.7153 -0.551543,-1.2105 -1.141783,-1.31127 -5.511911,-0.94105 l -4.004723,0.33927 -0.414536,0.80162 c -0.580631,1.12282 -0.33124,3.41051 0.564486,5.17814 0.864933,1.70687 0.401441,1.53809 -0.532173,-0.19379 l -0.667689,-1.23857 0.164282,1.05833 c 0.09036,0.58208 0.625166,2.04502 1.188469,3.25096 1.160465,2.48438 3.279992,4.90239 6.010249,6.85664 0.909505,0.651 1.653646,1.23421 1.653646,1.29603 0,0.24649 -2.320319,-1.35566 -3.444584,-2.37843 -0.657593,-0.59824 -1.623822,-1.44489 -2.147176,-1.88145 -0.523351,-0.43656 -1.562899,-1.86032 -2.310104,-3.1639 -1.107091,-1.93144 -1.358553,-2.60074 -1.358553,-3.61597 0,-0.76105 -0.128694,-1.28904 -0.330729,-1.35687 -0.259985,-0.0873 -0.263094,-0.24765 -0.01453,-0.74965 0.173905,-0.35124 0.307851,-0.95856 0.297656,-1.34962 -0.03823,-1.46625 0.868548,-2.97706 2.545041,-4.24039 1.946955,-1.46714 3.363454,-2.19708 5.073782,-2.61458 2.270866,-0.55434 2.154629,-0.32261 2.193317,-4.37264 0.03489,-3.6521 0.159229,-4.73576 0.609131,-5.30861 0.172371,-0.21948 -1.060074,-1.61226 -4.097192,-4.63021 -7.486769,-7.43951 -12.832345,-14.97611 -17.34942,-24.4605 -1.891276,-3.97107 -4.008311,-9.56655 -4.008311,-10.59428 0,-0.39873 -0.747493,-1.9787 -1.041852,-2.20216 -0.09585,-0.0728 -0.451014,-0.52835 -0.78926,-1.01242 -0.649862,-0.93004 -0.989862,-1.98026 -1.342539,-4.14695 -0.118432,-0.72761 -0.396417,-2.34521 -0.617741,-3.59467 -1.13498,-6.40739 -1.361485,-9.67501 -1.364771,-19.68867 -0.0035,-10.60612 0.157485,-12.76361 1.480508,-19.84375 1.038254,-5.5562 2.101974,-9.51859 3.729011,-13.89062 1.915983,-5.14848 5.886366,-13.136046 7.28141,-14.648663 0.420743,-0.456206 1.256343,-1.484305 1.856886,-2.28467 1.310222,-1.746171 5.095581,-5.518322 7.485782,-7.459661 2.619045,-2.127205 8.99675,-6.305104 12.559026,-8.22715 5.662538,-3.055255 14.620764,-5.967581 22.570099,-7.337555 12.280934,-2.116475 24.718084,-0.992082 37.644404,3.403279 13.48849,4.586521 26.96311,14.128873 33.87129,23.986713 1.14954,1.64037 1.35935,1.98437 1.21027,1.98437 -0.0646,0 -0.92919,-1.101324 -1.92129,-2.447391 -2.48477,-3.371295 -7.50662,-8.331371 -11.61851,-11.475586 -8.81128,-6.73767 -17.26399,-10.896009 -27.3406,-13.450296 -3.89028,-0.986136 -3.8176,-0.810789 0.2208,0.532742 6.5393,2.175547 16.4161,7.486147 22.3573,12.021161 4.15574,3.17215 8.9745,8.144345 12.4619,12.858717 3.97297,5.37077 8.00065,14.42897 10.16579,22.86274 0.79973,3.11515 1.79988,8.73125 1.55492,8.73125 -0.27519,0 -0.41854,-0.56456 -0.77261,-3.04271 -0.89532,-6.26649 -3.7781,-15.13523 -7.01175,-21.57129 -1.05097,-2.09178 -4.4253,-7.112089 -6.48581,-9.649541 -8.21291,-10.113949 -21.29918,-18.418753 -35.98248,-22.835189 -5.91578,-1.779345 -7.64087,-2.158059 -11.32481,-2.486163 -5.09806,-0.454049 -12.695204,0.155845 -20.039064,1.608726 -4.601352,0.910313 -12.274092,3.219112 -14.929641,4.492467 -1.174459,0.563162 -1.178163,0.569024 -0.272851,0.431721 1.280752,-0.194243 0.777634,0.18993 -1.513086,1.155368 -1.978541,0.833869 -2.622114,0.765257 -1.002634,-0.106892 0.503579,-0.271194 0.86518,-0.5435 0.803556,-0.605123 -0.179674,-0.179673 -5.811208,3.014011 -8.988455,5.097416 -5.84264,3.831176 -10.789994,8.31399 -14.245029,12.907473 -5.567805,7.402417 -9.576843,17.048277 -11.797872,28.386027 -1.379797,7.04349 -1.723364,11.396 -1.670802,21.16667 0.04247,7.89578 0.461119,13.30221 1.369817,17.69006 0.297148,1.43485 0.540271,2.88872 0.540271,3.23084 0,0.34211 0.252709,0.85746 0.561579,1.14522 0.399983,0.37264 0.59736,0.94661 0.685929,1.99468 0.06892,0.81555 0.01516,1.47149 -0.120607,1.47149 -0.54427,0 -0.189929,0.84138 0.703135,1.66959 0.521449,0.48358 1.235819,1.24192 1.587487,1.68519 0.81131,1.02265 1.499108,0.88881 1.728965,-0.33642 0.09304,-0.49593 0.290848,-0.90169 0.439581,-0.90169 0.151559,0 0.195318,0.23663 0.09956,0.53836 -0.264536,0.83348 -0.371335,2.45972 -0.181369,2.76178 0.09399,0.14945 0.210521,0.56939 0.258958,0.93319 0.04844,0.3638 0.57172,1.85208 1.162841,3.30729 0.591124,1.45521 1.341438,3.36021 1.667362,4.23333 0.325924,0.87313 0.96652,2.17636 1.423546,2.89608 0.457025,0.71971 0.831688,1.43408 0.832585,1.5875 0.0042,0.71072 2.4804,4.8315 5.016884,8.34872 2.470203,3.4253 8.619996,9.46766 10.111386,9.93474 0.337045,0.10555 1.140931,0.55372 1.786411,0.99593 0.948815,0.65001 3.952256,2.27147 4.51494,2.43746 0.07276,0.0215 0.310886,0.11675 0.529167,0.21175 3.044259,1.32488 7.892286,2.04511 10.349635,1.53755 0.836597,-0.1728 2.187319,-0.60881 3.001603,-0.96893 0.814284,-0.36011 1.584362,-0.65475 1.711285,-0.65475 0.126924,0 1.272993,0.48601 2.546813,1.08003 2.83137,1.32035 5.84971,2.43845 7.79066,2.88592 2.01192,0.46384 2.598374,0.87072 0.94434,0.65519 -2.09496,-0.27299 -4.55254,-1.12351 -8.02194,-2.77624 -3.357919,-1.59962 -4.382561,-1.80055 -1.71979,-0.33725 10.79509,5.93237 22.163084,5.71082 34.951224,-0.68115 2.97751,-1.48826 7.28744,-4.29396 9.86147,-6.41965 4.18466,-3.4558 9.39815,-9.02949 12.80846,-13.6934 1.81644,-2.48415 2.63231,-3.32589 1.18565,-1.22325 -5.86299,8.52157 -14.8557,16.91553 -22.49274,20.99513 -5.5728,2.97691 -9.58024,4.32681 -16.27187,5.48117 -6.04397,1.04263 -11.730334,0.11723 -18.045694,-2.93677 -1.3394,-0.64771 -2.50026,-1.17765 -2.57969,-1.17765 -0.29027,0 -0.12745,1.09651 0.65555,4.41491 0.96376,4.08446 1.7818,6.67753 2.29147,7.26363 1.06121,1.22036 15.613124,1.26685 23.896064,0.0763 5.96784,-0.85775 12.90297,-2.97603 18.78542,-5.73784 4.33102,-2.03341 10.69159,-8.15347 16.21288,-15.59982 0.83281,-1.12319 1.51421,-2.08182 1.51421,-2.1303 0,-0.0485 0.7792,-1.26999 1.73155,-2.71446 1.72135,-2.61084 7.36304,-13.47488 7.21137,-13.88673 -0.0437,-0.11855 -1.35218,0.29735 -2.90782,0.92422 -1.55564,0.62688 -2.87652,1.09169 -2.93529,1.03292 -0.0588,-0.0588 -0.60185,0.0678 -1.20685,0.28125 -0.605,0.21345 -1.71563,0.45849 -2.46806,0.54452 -0.75243,0.086 -1.45646,0.21105 -1.56451,0.27783 -0.10805,0.0668 -0.24985,-0.0282 -0.31512,-0.21097 -0.15043,-0.42134 -0.13363,-0.44088 -1.62456,1.88949 -3.48862,5.45282 -11.68952,13.9628 -17.31444,17.96699 -3.85455,2.74392 -9.39978,5.59331 -13.96223,7.17442 -3.25584,1.12831 -7.6841,1.86885 -11.18866,1.87109 -1.80689,0.001 -3.21261,-0.0705 -3.12384,-0.15932 0.0888,-0.0888 1.98386,-0.26701 4.21129,-0.39607 2.85046,-0.16517 4.79429,-0.43066 6.56341,-0.89645 1.38245,-0.36398 2.65036,-0.69699 2.81758,-0.74 0.16722,-0.043 0.46488,-0.20468 0.66146,-0.35924 0.19658,-0.15456 1.83338,-0.79678 3.63733,-1.42716 1.80395,-0.63038 3.60708,-1.42144 4.00695,-1.75791 0.39987,-0.33647 0.80548,-0.61176 0.90135,-0.61176 0.0959,0 0.97167,-0.51897 1.94619,-1.15328 0.97452,-0.6343 2.60529,-1.68976 3.62394,-2.34545 1.01864,-0.65569 2.66693,-2.04172 3.66285,-3.08005 0.99593,-1.03834 1.91866,-1.88788 2.05053,-1.88788 0.13186,0 0.23974,-0.1786 0.23974,-0.39688 0,-0.21828 0.13947,-0.39687 0.30994,-0.39687 0.3605,0 2.60048,-2.27173 2.60048,-2.63734 0,-0.13573 0.16575,-0.342 0.36834,-0.45837 0.20259,-0.11637 0.59978,-0.6283 0.88264,-1.13763 0.28286,-0.50932 0.68265,-0.92604 0.88843,-0.92604 0.20577,0 0.37724,-0.11906 0.38104,-0.26458 0.012,-0.46002 0.5049,-1.09186 0.99128,-1.27072 0.25796,-0.0949 0.54894,-0.38355 0.64662,-0.64151 0.0977,-0.25796 0.82182,-1.12387 1.6092,-1.92423 0.78739,-0.80037 1.74299,-2.11005 2.12356,-2.91042 0.86167,-1.81213 0.96157,-2.08904 0.57275,-1.5875 -0.255,0.32892 -0.28529,0.29474 -0.1769,-0.19962 0.2433,-1.10966 -0.98164,-3.04655 -3.03983,-4.80666 -4.49549,-3.84443 -11.03196,-5.64193 -20.19609,-5.55384 -3.63716,0.035 -7.08016,0.32868 -8.06979,0.68842 -0.21828,0.0793 -0.90467,0.19344 -1.52532,0.25354 -1.45908,0.14129 -2.44238,0.52156 -2.44748,0.94651 -0.003,0.26513 -0.0486,0.26721 -0.2121,0.01 -0.16393,-0.25812 -0.38744,-0.25984 -1.05428,-0.008 -0.46543,0.17568 -0.84624,0.42696 -0.84624,0.55839 0,0.13144 -0.16799,0.0996 -0.37332,-0.0709 -0.2552,-0.2118 -0.42757,-0.22205 -0.54478,-0.0324 -0.0943,0.15261 -0.40256,0.27745 -0.68501,0.27745 -0.28246,0 -0.51356,0.11533 -0.51356,0.25628 0,0.14095 -0.16324,0.19364 -0.36276,0.11708 -0.19951,-0.0766 -0.52693,0.0165 -0.7276,0.20674 -0.20066,0.19027 -0.6625,0.37954 -1.0263,0.42061 -0.3638,0.0411 -1.13771,0.29717 -1.71979,0.56913 -0.58209,0.27196 -1.53459,0.69577 -2.11667,0.94179 -0.58208,0.24602 -1.951304,0.88048 -3.042714,1.40992 -1.09141,0.52943 -2.04391,0.97061 -2.11667,0.9804 -0.28389,0.0382 -3.06953,1.54584 -4.02709,2.17953 -0.55591,0.36788 -1.07028,0.60935 -1.14304,0.53659 -0.59134,-0.59135 11.145294,-6.23781 16.811804,-8.08812 4.19172,-1.36874 5.05529,-1.5973 8.20969,-2.17284 4.07832,-0.74412 7.77089,-0.91744 11.68851,-0.54865 7.16697,0.67468 11.6182,2.20964 16.24734,5.60271 2.91586,2.13728 4.27209,3.45735 4.76566,4.63863 0.204,0.48824 0.46005,0.8877 0.569,0.8877 0.39419,0 4.45039,-1.34621 5.48334,-1.81986 0.58209,-0.26691 1.40129,-0.56811 1.82045,-0.66933 0.65139,-0.1573 6.25727,-2.46042 6.44804,-2.64911 0.0365,-0.0361 0.13042,-0.65095 0.20867,-1.36629 0.0782,-0.71534 0.60573,-2.66983 1.17217,-4.34332 3.77403,-11.14984 5.967,-19.76985 7.30327,-28.7073 0.43526,-2.91118 0.58512,-12.70513 0.23857,-15.59207 -0.0853,-0.71027 -0.0481,-1.19236 0.0855,-1.10979 0.30977,0.19144 0.62827,5.16523 0.62902,9.8227 0.001,7.79706 -2.3625,19.23367 -6.61685,32.01458 -1.16253,3.4925 -2.19612,6.88578 -2.29686,7.54063 -0.28588,1.85848 -0.82703,2.76174 -2.01649,3.3658 -1.00851,0.51217 -1.18449,0.78729 -2.74241,4.28734 -4.09169,9.1924 -8.6481,16.07453 -15.51108,23.42831 l -2.21571,2.37416 1.7198,-1.31529 c 2.63799,-2.01752 8.60107,-8.09795 11.41057,-11.63512 5.48111,-6.90075 9.52809,-13.77906 13.85485,-23.54791 3.8731,-8.7446 6.28386,-19.21084 7.19131,-31.22084 0.30653,-4.05693 0.21458,-13.95932 -0.15846,-17.06562 -1.25165,-10.42231 -3.23378,-17.1896 -7.18779,-24.54011 -0.72408,-1.34606 -1.25741,-2.447387 -1.18519,-2.447387 0.20137,0 2.58723,4.151967 3.49689,6.085407 2.24797,4.77801 4.37407,12.47593 4.96915,17.99167 0.0864,0.80037 0.24526,2.16959 0.35315,3.04271 0.33518,2.71281 0.2265,17.72255 -0.15231,21.03438 -1.23247,10.77518 -3.50075,19.6841 -6.8712,26.9875 -6.01234,13.02807 -9.58074,18.89414 -16.17541,26.59062 -2.88675,3.36906 -5.88341,6.30837 -8.8056,8.6371 -2.38908,1.90389 -2.65115,2.44653 -1.31317,2.71906 0.85718,0.17459 4.46508,0.58158 7.2474,0.81755 2.27076,0.19257 3.3668,0.74286 4.33182,2.17484 0.4739,0.70322 0.5673,1.22618 0.56595,3.16871 -0.001,1.85537 -0.035,2.0586 -0.16622,1.00358 l -0.1646,-1.32292 -0.19661,1.2937 c -0.30177,1.98561 -0.25038,4.08674 0.0881,3.60109 0.20462,-0.29361 0.23307,-0.15591 0.10933,0.52917 -0.34773,1.92521 -0.72139,2.62845 -2.07869,3.91213 l -1.39725,1.32147 0.88162,0.70345 c 2.08965,1.66738 2.79725,4.80606 1.6309,7.23419 -0.53333,1.11029 -3.60989,4.13306 -4.26011,4.18564 -0.63624,0.0514 -2.31424,0.90929 -2.31424,1.18312 0,0.15215 -0.1199,0.20254 -0.26645,0.11197 -0.14655,-0.0906 -0.34051,0.0283 -0.43102,0.26417 -0.0905,0.23587 -0.31615,0.37068 -0.50143,0.29958 -0.18527,-0.0711 -0.41796,-0.0482 -0.51707,0.0509 -0.0991,0.0991 -0.25958,0.18322 -0.3566,0.1869 -0.40576,0.0154 -1.89618,0.80105 -1.89618,0.99956 0,0.11858 -0.11906,0.14202 -0.26458,0.0521 -0.14552,-0.0899 -0.26458,-0.0247 -0.26458,0.14498 0,0.16968 -0.1786,0.23997 -0.39688,0.15621 -0.21828,-0.0838 -0.39687,-0.0317 -0.39687,0.11558 0,0.14734 -0.14883,0.24388 -0.33073,0.21455 -0.35194,-0.0567 -0.38879,-0.0444 -3.24115,1.08547 -1.63879,0.64916 -6.47159,2.26655 -7.54062,2.52361 -1.79608,0.4319 -6.9054,1.82743 -8.73126,2.3848 -2.81689,0.85991 -5.48741,1.487 -6.35,1.4911 -0.3638,0.002 -1.79255,0.1862 -3.175,0.40993 -3.07055,0.49693 -3.21276,0.5077 -9.12812,0.69113 -3.31289,0.10273 -5.809454,0.031 -8.202084,-0.2357 z m 29.260164,-3.42195 c 9.48946,-2.57108 21.64876,-7.23174 25.42307,-9.74467 1.94546,-1.29529 2.20904,-1.56588 2.26101,-2.32114 l 0.0588,-0.85493 -0.72029,0.65044 c -0.39615,0.35773 -1.06187,0.82127 -1.47936,1.03008 -0.41749,0.20881 -1.0128,0.64755 -1.32292,0.97499 -0.31011,0.32743 -0.80791,0.59739 -1.10623,0.5999 -0.29832,0.003 -0.66114,0.12331 -0.80626,0.26844 -0.35534,0.35534 -4.68474,2.48478 -4.9352,2.42742 -0.10914,-0.025 -0.19844,0.0806 -0.19844,0.23475 0,0.15411 -0.1224,0.20454 -0.27201,0.11208 -0.22983,-0.14204 -2.2058,0.55651 -5.9457,2.10194 -0.43656,0.18039 -2.01006,0.723 -3.49666,1.20578 -1.56671,0.50881 -2.63393,0.98941 -2.5388,1.14332 0.0902,0.14604 0.037,0.18695 -0.11842,0.0909 -0.15539,-0.096 -1.75137,0.24516 -3.54661,0.75822 -1.79525,0.51305 -3.71321,1.00559 -4.26214,1.09452 -1.047,0.16963 -1.3923,0.44311 -1.11862,0.88594 0.23533,0.38077 0.37032,0.35924 4.12475,-0.65799 z m -12.06225,-11.50514 c 6.6946,-0.8471 15.59211,-3.35494 21.27146,-5.99556 1.36733,-0.63574 2.69976,-1.15589 2.96095,-1.15589 0.2612,0 0.55012,-0.1217 0.64205,-0.27045 0.0919,-0.14875 0.79987,-0.73787 1.5732,-1.30916 l 1.40604,-1.0387 4.72628,-0.15891 c 2.59945,-0.0874 5.09419,-0.21447 5.54386,-0.28239 1.29769,-0.19601 1.93995,-1.09443 2.07999,-2.90962 0.30473,-3.94987 0.76924,-7.17844 1.11175,-7.72732 0.34286,-0.54943 0.30551,-0.68518 -0.44585,-1.62015 -0.74857,-0.93149 -0.98581,-1.04653 -2.72094,-1.31932 -2.06332,-0.3244 -7.00375,-0.76518 -9.62754,-0.85896 -1.63521,-0.0584 -1.64692,-0.0536 -3.175,1.31988 -3.54742,3.18844 -12.50172,6.50334 -21.11291,7.81604 -7.12333,1.0859 -9.66208,1.30032 -15.61042,1.31843 -3.346984,0.0102 -6.561674,-0.0626 -7.143754,-0.16185 -0.58208,-0.0992 -1.93628,-0.30684 -3.00932,-0.4614 -7.271202,-1.04728 -16.888045,-5.02899 -20.347726,-8.42467 -0.941853,-0.92444 -1.315413,-1.12426 -1.978514,-1.05834 -0.449594,0.0447 -0.865439,0.25986 -0.924105,0.47814 -0.09481,0.35278 -0.07548,0.35278 0.174011,0 0.295796,-0.41826 0.305282,-0.20638 0.38617,8.62692 0.04112,4.49074 0.111696,4.77442 1.359276,5.46395 0.327318,0.18091 1.472922,0.99978 2.545789,1.81972 3.046389,2.3282 7.801819,4.68006 11.475667,5.67543 5.752412,1.55854 7.362952,1.8798 12.303122,2.45417 2.29693,0.26705 13.908154,0.11258 16.536464,-0.21999 z m 27.47505,-10.79239 c -0.0358,-0.60514 -0.004,-0.63669 0.22586,-0.22559 0.14772,0.26397 0.16635,0.57894 0.0416,0.70353 -0.12467,0.12453 -0.24449,-0.0896 -0.26747,-0.47794 z m -27.3387,-1.05541 c -0.004,-0.63344 0.40679,-0.81797 0.59102,-0.26529 0.0695,0.20835 0.22007,0.12438 0.40854,-0.22778 0.29006,-0.542 0.25197,-0.55611 -1.34473,-0.49815 -10.90524,0.3959 -16.093144,0.29632 -20.335064,-0.39035 -9.735016,-1.57586 -14.315086,-3.11179 -18.957807,-6.3575 -1.353013,-0.94588 -2.75104,-1.87465 -3.106727,-2.06393 -0.682847,-0.36339 -1.272519,-1.23076 -1.129139,-1.66091 0.04692,-0.14075 0.703072,0.33331 1.458119,1.05347 3.513347,3.35102 8.964216,5.93253 16.009999,7.58227 3.561205,0.83385 5.499645,1.06843 5.499645,0.66556 0,-0.15663 0.11533,-0.28479 0.25628,-0.28479 0.14095,0 0.19109,0.16989 0.11141,0.37753 -0.14882,0.38782 -0.0169,0.41786 3.59626,0.8189 2.1543,0.23912 1.48462,-0.0759 -1.07179,-0.50426 -1.22689,-0.20555 -1.93305,-0.38495 -1.56924,-0.39866 0.3638,-0.0137 1.37583,0.0858 2.24896,0.22101 6.071514,0.94064 15.715354,0.84519 21.298954,-0.21079 8.87092,-1.67768 14.60539,-3.8767 20.88828,-8.01013 2.5039,-1.64727 3.73924,-2.23058 3.33345,-1.574 -0.0832,0.13453 -0.22319,2.72414 -0.3112,5.75469 -0.088,3.03055 -0.26458,5.68868 -0.39237,5.90696 -0.25377,0.43348 -0.0818,-8.66173 0.17647,-9.33487 0.0847,-0.22065 0.032,-0.47658 -0.11711,-0.56871 -0.14909,-0.0922 -0.19767,-0.37208 -0.10797,-0.62208 0.12761,-0.35561 0.0219,-0.32621 -0.48556,0.13507 -1.09533,0.99561 -4.75143,2.95656 -5.195,2.78634 -0.2706,-0.10384 -0.34789,-0.0528 -0.22386,0.14792 0.12767,0.20657 0.0414,0.24971 -0.26458,0.1323 -0.33242,-0.12757 -0.39601,-0.0804 -0.23744,0.1762 0.13792,0.22317 0.11385,0.28694 -0.0663,0.1756 -0.15558,-0.0961 -0.3228,-0.0848 -0.37161,0.0253 -0.18631,0.42005 -6.11013,2.77033 -9.74604,3.86674 -1.23693,0.373 -3.73724,0.94286 -5.55625,1.26636 -3.01065,0.53543 -3.37159,0.66095 -4.02414,1.39946 -0.39427,0.4462 -0.72352,0.69222 -0.73166,0.54669 -0.008,-0.14552 -0.13022,-0.086 -0.27128,0.1323 -0.2074,0.32093 -0.25726,0.28295 -0.26053,-0.19844 z m 26.54054,-10.73912 c 0.6242,-0.55828 0.46622,-0.49555 -0.61543,0.24437 -1.7805,1.21798 -2.28739,1.68034 -1.10436,1.00734 0.484,-0.27534 1.25791,-0.83861 1.71979,-1.25171 z m 5.31678,9.25361 c -1.05071,-0.4761 -1.80092,-1.9954 -1.55894,-3.1571 0.54275,-2.60565 2.2417,-3.93089 4.32145,-3.37088 1.00913,0.27173 2.39337,1.52818 2.43803,2.21295 0.0111,0.17074 0.0622,0.533 0.11351,0.80503 0.13102,0.69477 -0.84595,2.58392 -1.64426,3.17946 -0.8613,0.64254 -2.62971,0.80182 -3.66979,0.33054 z m 1.62331,-0.42983 c -0.67497,-0.12991 -1.25847,-0.46955 -1.65233,-0.96176 -0.33489,-0.41851 -0.60948,-0.62833 -0.61021,-0.46627 -7.9e-4,0.16205 0.31258,0.60854 0.69623,0.99218 0.51511,0.51511 0.94759,0.68958 1.65364,0.66711 l 0.95611,-0.0304 z m 1.05177,-0.46256 c -1.06287,-0.15671 -2.22064,-1.02199 -2.41763,-1.80686 -0.0889,-0.35414 -0.26776,-0.64389 -0.39751,-0.64389 -0.29484,0 -0.29417,0.0184 0.0344,0.96105 0.34522,0.99032 1.45641,1.67977 2.6401,1.6381 0.87934,-0.031 0.88643,-0.0384 0.14062,-0.1484 z m 1.38801,-1.01054 c 0.84428,-0.59136 0.78865,-2.11895 -0.11461,-3.14677 -1.73459,-1.97382 -4.34149,-0.0979 -3.23592,2.32861 0.53069,1.16472 2.25469,1.58571 3.35053,0.81816 z m -3.83312,-2.49891 c 0.0762,-0.29124 0.0305,-0.46281 -0.10144,-0.38126 -0.13195,0.0816 -0.2399,0.31984 -0.2399,0.52953 0,0.54763 0.17978,0.46953 0.34134,-0.14827 z m 7.74244,-4.10585 c -0.83725,-1.09769 -0.75332,-1.42204 0.20542,-0.79384 0.75735,0.49623 1.0964,1.17653 0.75601,1.51692 -0.13367,0.13367 -0.54245,-0.17377 -0.96143,-0.72308 z m -1.7717,-1.04698 c -0.0614,-0.0614 -1.41751,-0.13254 -3.01347,-0.15798 -1.59595,-0.0255 -3.28869,-0.10451 -3.76164,-0.1757 -1.63138,-0.24556 -0.85336,-0.54288 1.45521,-0.5561 2.49028,-0.0143 6.20719,0.51667 5.72545,0.81783 -0.16161,0.10102 -0.3441,0.1334 -0.40555,0.0719 z m 3.17,20.23445 c 0.27282,-0.84149 0.26432,-0.87915 -0.093,-0.41245 -0.21628,0.28247 -0.39324,0.7488 -0.39324,1.03628 0,0.6707 0.11396,0.5245 0.48625,-0.62383 z m -0.27458,-0.84667 c 0.59534,-0.59535 0.34707,-1.88394 -0.63877,-3.31533 -1.47762,-2.14543 -2.22257,-2.48818 -5.45666,-2.51053 -2.78369,-0.0192 -5.78094,0.18541 -6.92653,0.47294 -1.1996,0.30108 -1.01095,0.8456 0.45562,1.31513 0.75595,0.24202 1.85071,0.65572 2.43279,0.91935 0.58209,0.26362 2.24896,0.89114 3.70417,1.39448 1.45521,0.50334 3.30068,1.15528 4.10104,1.44874 1.78718,0.65528 1.93124,0.67231 2.32834,0.27522 z m -6.50663,-3.24149 c -1.24866,-0.30231 -2.13934,-0.94041 -2.16329,-1.54985 -0.005,-0.11773 -0.14293,-0.13093 -0.30733,-0.0293 -0.17818,0.11012 -0.25165,0.043 -0.1819,-0.16629 0.0644,-0.19306 0.27497,-0.40367 0.46803,-0.46803 0.20925,-0.0697 0.27641,0.004 0.16629,0.18191 -0.1141,0.18461 0.0204,0.2989 0.35174,0.2989 0.3468,0 0.48706,0.12878 0.39671,0.36423 -0.14217,0.37049 0.52234,0.6368 2.14075,0.85793 l 0.79375,0.10845 -0.79375,-0.45674 c -0.80404,-0.46265 -0.92887,-0.51059 -1.52135,-0.58426 -0.20466,-0.0255 -0.15701,-0.14236 0.12503,-0.30674 0.56817,-0.33113 2.70891,0.66407 2.42312,1.12649 -0.1067,0.17264 -0.0632,0.22159 0.10466,0.11783 0.15795,-0.0976 0.35828,-0.0625 0.44517,0.0781 0.12948,0.2095 -0.67389,0.86696 -0.96392,0.78884 -0.046,-0.0124 -0.71362,-0.17505 -1.48371,-0.36149 z m -84.192548,-5.46192 c 2.618732,-0.35672 3.96875,-0.77077 3.96875,-1.21721 0,-0.27772 -0.121124,-0.29901 -0.511773,-0.0899 -0.734994,0.39336 -3.278971,0.36345 -3.032313,-0.0357 0.131641,-0.213 0.04232,-0.25238 -0.286393,-0.12624 -0.386945,0.14849 -0.419375,0.11304 -0.170698,-0.1866 0.168849,-0.20345 0.751236,-0.44424 1.294193,-0.53508 0.542957,-0.0908 1.255083,-0.23865 1.582505,-0.32846 0.359431,-0.0986 0.595312,-0.0462 0.595312,0.13215 0,0.16249 -0.327421,0.29726 -0.727604,0.29949 -0.400182,0.002 -0.906198,0.12832 -1.124479,0.28021 -0.286999,0.1997 -0.06851,0.22588 0.789197,0.0946 1.651198,-0.25279 2.566712,-1.43717 1.110908,-1.43717 -1.849623,0 -5.77755,1.75848 -7.037329,3.15052 -0.54238,0.59932 -0.854671,0.59938 3.549724,-5.3e-4 z m 4.925491,-1.0114 c -0.03725,-1.57855 -0.427574,-2.14158 -0.427574,-0.61676 0,0.95624 0.195413,1.91782 0.389736,1.91782 0.0377,0 0.05472,-0.58548 0.03784,-1.30106 z m 86.058597,-1.54321 c 0.59086,-5.43889 0.61213,-5.7604 0.36321,-5.4901 -0.13402,0.14552 -0.39119,1.67224 -0.5715,3.39272 -0.1803,1.72048 -0.39403,3.53618 -0.47496,4.03489 -0.0842,0.51869 -0.0356,0.90676 0.11355,0.90676 0.14339,0 0.39976,-1.27992 0.5697,-2.84427 z m 0.4724,0.66146 c -0.0734,-0.1819 -0.13346,-0.0331 -0.13346,0.33073 0,0.3638 0.0601,0.51263 0.13346,0.33073 0.0734,-0.18191 0.0734,-0.47956 0,-0.66146 z m -64.208924,-2.72003 c -0.28856,-0.51375 -0.52465,-1.15111 -0.52465,-1.41637 0,-0.26525 -0.29266,-1.28915 -0.65037,-2.27534 -0.3577,-0.98618 -0.90965,-2.93842 -1.22656,-4.33832 -0.316907,-1.39989 -0.656597,-2.63588 -0.754866,-2.74663 -0.09827,-0.11076 -0.885767,0.0426 -1.749997,0.34077 -2.245125,0.77464 -5.749668,0.93619 -8.93857,0.41205 -2.39227,-0.39321 -6.019972,-1.65282 -6.655676,-2.31098 -0.145521,-0.15066 0.211667,-0.0743 0.79375,0.16959 2.651308,1.11109 3.572534,1.40006 5.473891,1.71701 2.425517,0.40433 7.659378,0.2594 8.247105,-0.22837 0.217226,-0.18028 0.552617,-0.30643 0.745313,-0.28033 0.663162,0.0898 1.042744,-0.0157 0.898115,-0.24974 -0.07971,-0.12898 0.09186,-0.29643 0.381262,-0.37211 0.289404,-0.0757 0.52619,-0.27087 0.52619,-0.43375 0,-0.19871 -0.240541,-0.17176 -0.731097,0.0819 -2.278105,1.17805 -6.463263,1.69466 -8.807575,1.08719 -0.818427,-0.21208 -1.910619,-0.4397 -2.427094,-0.50582 -2.988882,-0.38267 -10.289064,-4.74128 -14.202088,-8.47943 -6.400699,-6.11464 -10.473563,-12.19437 -14.184445,-21.17371 -0.859327,-2.07934 -2.245619,-6.34239 -2.245619,-6.90561 0,-0.40144 -0.198308,-0.61123 -0.661459,-0.69977 -0.363802,-0.0696 -0.661458,-0.10837 -0.661458,-0.0863 0,0.0221 0.348215,1.10692 0.773814,2.41071 4.667665,14.29906 13.133181,26.01068 23.369416,32.33043 1.873335,1.15658 1.999573,1.42689 0.194418,0.4163 -3.214894,-1.79982 -7.823232,-5.64155 -11.364659,-9.47412 -0.941263,-1.01865 -1.587457,-1.67349 -1.435986,-1.45521 0.729115,1.05072 3.827907,4.84189 5.406575,6.61458 3.594961,4.0368 5.844485,6.19572 10.335242,9.91895 1.460119,1.21057 7.543565,4.65168 10.203747,5.77176 3.226652,1.3586 8.579921,3.06425 9.674891,3.08259 l 0.72309,0.0121 -0.52465,-0.93409 z m -22.224531,-0.32268 c -0.0031,-0.56699 -0.06067,-0.63999 -0.260533,-0.33073 -0.334542,0.51767 -0.334542,1.05833 0,1.05833 0.145521,0 0.26276,-0.32742 0.260533,-0.7276 z m -0.0999,-1.24911 c -0.09576,-0.65248 -0.42522,-0.79507 -0.42522,-0.18405 0,0.31529 0.108527,0.57326 0.241173,0.57326 0.132643,0 0.215463,-0.17515 0.184047,-0.38921 z m -0.130871,-2.0681 c -0.216078,-0.21608 -0.294349,-0.18647 -0.294349,0.11134 0,0.52595 0.355785,0.88174 0.487275,0.48728 0.05578,-0.16735 -0.03104,-0.43673 -0.192926,-0.59862 z m 0.153588,-2.23401 c -0.06708,-0.25743 -0.126381,-0.11086 -0.131773,0.3257 -0.0054,0.43656 0.04949,0.64719 0.12197,0.46805 0.07247,-0.17913 0.07689,-0.53631 0.0098,-0.79375 z m 85.690198,-0.8068 c -0.41219,-0.39577 -0.65566,-0.54099 -0.54104,-0.32271 0.34949,0.66555 0.99828,1.3345 1.14855,1.18423 0.0781,-0.0781 -0.19532,-0.46575 -0.60751,-0.86152 z m -1.20687,-0.85188 c 0,-0.14552 -0.56555,-0.24768 -1.25677,-0.22703 l -1.25678,0.0375 1.05834,0.18949 c 0.58208,0.10422 1.14763,0.20639 1.25677,0.22704 0.10914,0.0206 0.19844,-0.0815 0.19844,-0.22704 z m -4.16719,-0.43981 c -0.1819,-0.0734 -0.47956,-0.0734 -0.66146,0 -0.1819,0.0734 -0.0331,0.13345 0.33073,0.13345 0.3638,0 0.51263,-0.0601 0.33073,-0.13345 z m -4.34802,-0.47527 c -0.25936,-0.21167 -2.06813,-0.33707 -2.06813,-0.14338 0,0.12715 0.38696,0.27135 0.8599,0.32045 0.78724,0.0817 1.41296,-0.01 1.20823,-0.17707 z m 1.96677,0.19919 c -0.32742,-0.0631 -0.8632,-0.0631 -1.19063,0 -0.32742,0.0631 -0.0595,0.11466 0.59532,0.11466 0.65484,0 0.92273,-0.0516 0.59531,-0.11466 z m -4.56406,-0.45912 c 0,-0.27926 -0.50777,-0.39658 -0.6588,-0.15222 -0.0914,0.1479 0.0194,0.2689 0.2463,0.2689 0.22687,0 0.4125,-0.0525 0.4125,-0.11668 z m 7.67291,-29.08738 c 0,-0.0549 -0.20836,-0.2633 -0.46302,-0.46302 -0.41964,-0.32911 -0.429,-0.31975 -0.0999,0.0999 0.34564,0.44073 0.56291,0.58089 0.56291,0.36313 z M 40.083266,166.25397 c -0.06655,-0.25466 -0.121002,-0.0463 -0.121002,0.46302 0,0.50933 0.05445,0.71768 0.121002,0.46302 0.06655,-0.25466 0.06655,-0.67138 0,-0.92604 z m 36.28287,83.73039 c -0.192297,-0.18754 -1.004472,-0.61864 -1.804837,-0.95801 -1.595313,-0.67645 -3.704167,-1.84901 -3.704167,-2.05959 0,-0.0733 0.431724,0.12144 0.959387,0.43277 0.527664,0.31133 1.021906,0.50353 1.098318,0.42712 0.07641,-0.0764 0.269766,0.0229 0.429675,0.22062 0.159912,0.19776 1.154427,0.68275 2.210041,1.07776 1.055613,0.39502 1.852258,0.82668 1.770324,0.95925 -0.207713,0.33609 -0.548028,0.30062 -0.958741,-0.0999 z M 69.4175,246.21587 c -0.282475,-0.21365 -0.38635,-0.38846 -0.230833,-0.38846 0.155514,0 0.430974,0.17859 0.612132,0.39688 0.412009,0.49644 0.2824,0.49358 -0.381299,-0.008 z m 17.010706,-0.65168 c -0.414922,-0.41493 -0.754407,-1.00169 -0.754407,-1.30393 0,-0.30223 0,-0.63881 0,-0.74795 0,-0.10914 0.148829,-0.20385 0.33073,-0.21047 0.181901,-0.007 0.304442,-0.14501 0.272311,-0.30754 -0.123605,-0.6253 3.015486,-1.17824 3.795486,-0.66857 0.46294,0.3025 0.6981,1.81903 0.37552,2.42177 -0.34139,0.6379 -1.11537,1.08623 -2.35977,1.36688 -0.785642,0.17719 -1.005294,0.10439 -1.65987,-0.55019 z m 1.10173,-0.59668 c 0.003,-0.24733 0.0605,-0.24163 0.22802,0.0226 0.3491,0.55074 0.61319,0.49493 0.8638,-0.18254 0.13235,-0.35777 0.37904,-0.56595 0.57949,-0.48903 0.22843,0.0877 0.33504,-0.0628 0.30854,-0.43537 -0.0326,-0.45763 -0.23508,-0.58565 -1.03242,-0.65263 -1.540954,-0.12944 -2.953657,1.0875 -1.968936,1.69609 0.170863,0.1056 0.234286,0.0736 0.143931,-0.0726 -0.08884,-0.14375 5.29e-4,-0.26137 0.198477,-0.26137 0.198006,0 0.299093,0.15875 0.224637,0.35278 -0.07446,0.19403 -0.0036,0.35278 0.157517,0.35278 0.161091,0 0.294714,-0.14882 0.296944,-0.33073 z m -19.781658,0.33363 c -0.886484,-0.5405 -1.221695,-1.01413 -0.396875,-0.56076 0.614407,0.33772 1.55607,1.06825 1.389062,1.07763 -0.07276,0.004 -0.519244,-0.22851 -0.992187,-0.51687 z m 53.736122,-0.65626 c -0.7743,-0.54234 -0.91936,-1.34746 -0.37035,-2.05547 0.25524,-0.32915 0.41239,-0.74729 0.34924,-0.92919 -0.0632,-0.1819 0.0212,-0.33073 0.18741,-0.33073 0.16624,0 0.22867,0.11907 0.13873,0.26459 -0.0899,0.14552 -0.0374,0.26458 0.11668,0.26458 0.1541,0 0.28019,-0.12609 0.28019,-0.2802 0,-0.15411 0.11907,-0.20661 0.26459,-0.11667 0.14552,0.0899 0.2682,0.008 0.27263,-0.18283 0.005,-0.19986 0.12961,-0.13709 0.29549,0.14842 0.22641,0.3897 0.33375,0.41985 0.50549,0.14198 0.35629,-0.57649 1.97538,0.32065 2.01568,1.11691 0.0175,0.34518 -0.0258,0.47803 -0.0961,0.29522 -0.19615,-0.50965 -0.61189,-0.11034 -0.61189,0.5877 0,0.50299 -0.23519,0.70112 -1.23776,1.04272 -1.50338,0.51226 -1.4274,0.51107 -2.10998,0.033 z m 2.02482,-0.85854 c 0,-0.1871 0.146,-0.31041 0.32445,-0.27403 0.17845,0.0364 0.36398,-0.19152 0.4123,-0.50645 0.17443,-1.13685 -2.56024,-1.1467 -3.15062,-0.0113 -0.167,0.32116 -0.21204,0.49853 -0.10008,0.39416 0.11196,-0.10437 0.4689,0.0189 0.79319,0.27403 0.68817,0.54131 1.72076,0.6155 1.72076,0.12363 z m 0.79375,-1.92768 c 0,-0.14552 -0.12609,-0.26458 -0.2802,-0.26458 -0.15411,0 -0.20661,0.11906 -0.11667,0.26458 0.0899,0.14552 0.21602,0.26458 0.2802,0.26458 0.0642,0 0.11667,-0.11906 0.11667,-0.26458 z m -33.295724,1.85208 c 0,-0.3638 0.0601,-0.51263 0.13345,-0.33073 0.0734,0.18191 0.0734,0.47956 0,0.66146 -0.0734,0.1819 -0.13345,0.0331 -0.13345,-0.33073 z m 28.966204,-0.73533 c -0.19273,-0.31184 0.52062,-1.30967 0.763,-1.0673 0.0995,0.0995 0.003,0.43548 -0.21532,0.74662 -0.21794,0.31114 -0.46439,0.45544 -0.54768,0.32068 z m -52.555901,-5.61772 c -0.504555,-0.12759 -0.646581,-0.31966 -0.598742,-0.80971 0.06057,-0.62046 0.04925,-0.62487 -0.330729,-0.12885 -0.216395,0.28247 -0.393446,0.39252 -0.393446,0.24455 0,-0.3289 0.982768,-1.24642 1.768544,-1.65112 0.765617,-0.39432 3.069214,-0.38114 3.470206,0.0198 0.482944,0.48294 0.378955,0.85625 -0.123261,0.4425 -0.396322,-0.32651 -0.423257,-0.29281 -0.267142,0.33421 0.107072,0.43004 0.04783,0.79863 -0.154551,0.96163 -0.50229,0.40454 -2.628313,0.77473 -3.370879,0.58694 z m 2.050521,-1.00424 c 0.983795,-0.55236 0.721267,-0.91854 -0.529167,-0.73811 -0.618464,0.0892 -1.323374,0.18679 -1.566466,0.21677 -0.318434,0.0393 -0.378624,0.17292 -0.215315,0.47807 0.267983,0.50073 1.456537,0.52298 2.310948,0.0433 z m 75.68758,0.34627 c -0.0456,-0.0424 -0.6782,-0.15498 -1.4058,-0.25012 -0.92558,-0.12103 -1.52159,-0.37855 -1.98438,-0.85741 -0.3638,-0.37644 -0.51263,-0.60173 -0.33073,-0.50066 0.19639,0.10913 0.33073,0.0294 0.33073,-0.19632 0,-0.72357 0.73112,-1.04352 1.96259,-0.85886 2.32,0.34791 3.85726,2.11288 2.22134,2.55039 -0.39098,0.10457 -0.74816,0.15541 -0.79375,0.11298 z m 0.0494,-1.32831 c 0,-0.38521 -1.34266,-0.92108 -2.30785,-0.92108 -0.47018,0 -0.61633,0.12359 -0.54757,0.46302 0.0564,0.2782 0.32288,0.4552 0.66771,0.44342 0.31564,-0.0108 0.51954,0.0684 0.45311,0.17584 -0.17141,0.27734 0.41689,0.43084 1.1293,0.29466 0.33291,-0.0637 0.6053,-0.26878 0.6053,-0.45586 z m -4.19865,-1.01157 c -0.16207,-0.19529 -0.21634,-0.43342 -0.12059,-0.52917 0.31481,-0.31481 0.50168,-0.18256 0.50168,0.35507 0,0.62755 -0.003,0.62912 -0.38109,0.1741 z m -80.373641,-5.07226 c -0.328266,-0.85544 1.297742,-1.7115 3.25741,-1.71494 1.815653,-0.003 2.136916,0.51859 0.815391,1.32434 -0.907984,0.55361 -1.381313,0.67725 -1.148102,0.2999 0.07695,-0.1245 -0.152765,-0.17041 -0.510468,-0.10203 -0.357701,0.0684 -0.585198,0.22977 -0.505545,0.35865 0.07965,0.12888 -0.28266,0.23433 -0.805138,0.23433 -0.603887,0 -1.005911,-0.14581 -1.103548,-0.40025 z m 4.263642,-0.97436 c 0.07694,0.0769 0.139888,0.001 0.139888,-0.1688 0,-0.42516 -1.152375,-0.38704 -2.257457,0.0747 -1.336972,0.55862 -1.124265,0.67528 0.530069,0.29072 0.796187,-0.18508 1.510562,-0.27356 1.5875,-0.19662 z m 61.126349,-14.23581 c -0.0899,-0.14552 -0.0374,-0.26458 0.11668,-0.26458 0.15411,0 0.2802,0.11906 0.2802,0.26458 0,0.14552 -0.0525,0.26458 -0.11668,0.26458 -0.0642,0 -0.19026,-0.11906 -0.2802,-0.26458 z M 139.6488,211.147 c 0,-0.26783 2.69477,-2.89042 2.96998,-2.89042 0.93774,0 -1.21076,2.76532 -2.31206,2.97584 -0.36186,0.0692 -0.65792,0.0307 -0.65792,-0.0854 z m 1.87211,-1.21761 0.64143,-0.70844 -0.8599,0.59416 c -0.86777,0.59961 -1.04172,0.82272 -0.64143,0.82272 0.12015,0 0.50711,-0.3188 0.8599,-0.70844 z m 9.90184,-17.01865 c 0.0899,-0.14552 0.21603,-0.26458 0.2802,-0.26458 0.0642,0 0.11668,0.11906 0.11668,0.26458 0,0.14552 -0.12609,0.26459 -0.2802,0.26459 -0.15411,0 -0.20661,-0.11907 -0.11668,-0.26459 z m -66.278127,-4.13558 c 0,-0.18849 0.664959,-0.74852 1.389062,-1.16986 0.866609,-0.50426 0.460584,0.1434 -0.466296,0.74381 -0.507521,0.32876 -0.922766,0.52048 -0.922766,0.42605 z m -1.607871,-0.90779 c -0.49812,-0.44368 -1.500984,-1.36753 -2.228588,-2.053 -1.890871,-1.78138 -5.159375,-4.62097 -5.159375,-4.48233 0,0.0646 -0.556593,-0.39355 -1.236877,-1.01812 -0.680283,-0.62456 -1.335127,-1.07485 -1.455208,-1.00063 -0.120081,0.0742 -0.218332,-0.0507 -0.218332,-0.27756 0,-0.22687 -0.112929,-0.41249 -0.250952,-0.41249 -0.138022,0 -0.560371,-0.28676 -0.938554,-0.63725 -0.378182,-0.35048 -1.099706,-0.8328 -1.603388,-1.07181 -0.503679,-0.23902 -1.152893,-0.68908 -1.442693,-1.00014 -0.289804,-0.31107 -0.526913,-0.46284 -0.526913,-0.33728 0,0.12557 -0.293193,-0.0471 -0.651539,-0.38378 -0.64352,-0.60456 -1.232294,-0.9894 -2.523461,-1.6494 -0.363802,-0.18597 -0.813731,-0.48328 -0.999845,-0.6607 -0.186113,-0.17741 -0.513535,-0.25536 -0.727604,-0.17321 -0.214069,0.0821 -0.389218,0.0205 -0.389218,-0.13692 0,-0.15746 -0.506015,-0.5343 -1.124479,-0.83744 -0.618463,-0.30314 -1.594932,-0.83411 -2.169927,-1.17994 -0.574998,-0.34582 -1.140545,-0.57 -1.256771,-0.49817 -0.116229,0.0718 -0.211323,0.005 -0.211323,-0.14959 0,-0.15411 -0.177199,-0.2802 -0.393777,-0.2802 -0.216577,0 -1.394282,-0.41416 -2.61712,-0.92036 -3.165042,-1.31017 -4.615686,-1.42842 -6.79471,-0.5539 -0.954698,0.38316 -2.175089,1.12332 -2.711979,1.6448 -0.53689,0.52148 -0.976164,0.87084 -0.976164,0.77637 0,-0.48074 0.984665,-1.56032 1.952045,-2.1402 0.599866,-0.35958 0.971601,-0.65447 0.82608,-0.6553 -0.145521,-8e-4 -0.651537,0.23441 -1.12448,0.52277 -0.472942,0.28836 -0.859895,0.44806 -0.859895,0.35488 0,-0.41982 -1.174904,0.95377 -1.735741,2.02927 -0.430035,0.82467 -0.624658,1.02345 -0.63319,0.64672 -0.01537,-0.67877 1.061381,-2.16508 2.032804,-2.80602 1.403858,-0.92624 3.251494,-1.36013 5.604806,-1.3162 1.238383,0.0231 2.369291,0.15972 2.51313,0.30356 0.143838,0.14384 0.571087,0.26153 0.949441,0.26153 0.378354,0 0.801026,0.10049 0.939271,0.22333 0.138245,0.12283 0.965729,0.5 1.838854,0.83816 1.490295,0.5772 3.615227,1.63826 7.011459,3.50109 5.176636,2.83939 12.773554,8.50536 17.137544,12.7816 1.838122,1.80117 3.279106,3.33778 3.202189,3.41469 -0.07692,0.0769 -0.547402,-0.22316 -1.04552,-0.66683 z m 73.309958,-0.52382 c 0,-0.57541 1.40992,-2.91455 1.6994,-2.8194 0.52646,0.17304 0.4445,1.12418 -0.17623,2.04529 -0.61318,0.90989 -1.52317,1.37237 -1.52317,0.77411 z m 1.11383,-0.84895 c 0.55592,-0.86877 0.75785,-1.52136 0.47075,-1.52136 -0.138,0 -0.49387,0.47625 -0.79083,1.05834 -0.57114,1.11952 -0.32648,1.47343 0.32008,0.46302 z m -70.566959,0.59531 c 0.08994,-0.14552 0.216025,-0.26458 0.280195,-0.26458 0.0642,0 0.11668,0.11906 0.11668,0.26458 0,0.14552 -0.12609,0.26458 -0.280199,0.26458 -0.154109,0 -0.206613,-0.11906 -0.116676,-0.26458 z m 0.926045,-0.43313 c 0,-0.12833 0.23812,-0.38204 0.52916,-0.5638 0.47158,-0.2945 0.5269,-0.26543 0.50828,0.26708 -0.0115,0.32866 -0.0826,0.44376 -0.15802,0.25578 -0.1053,-0.26244 -0.22327,-0.27027 -0.50828,-0.0337 -0.20413,0.16941 -0.37114,0.20302 -0.37114,0.0747 z m 1.32291,-1.01528 c 0,-0.069 0.38696,-0.31432 0.8599,-0.5451 l 0.8599,-0.41959 -0.66146,0.53921 c -0.63686,0.51915 -1.05834,0.6886 -1.05834,0.42548 z m -6.013351,-4.10784 c 0,-0.65484 0.0516,-0.92274 0.114662,-0.59531 0.06307,0.32742 0.06307,0.8632 0,1.19062 -0.06306,0.32742 -0.114662,0.0595 -0.114662,-0.59531 z m 68.112105,0.52276 c -0.17739,-0.67836 0.27282,-2.38619 0.76306,-2.89456 0.48975,-0.50786 0.47537,-0.053 -0.0371,1.17349 -0.58722,1.4054 -0.3122,1.793 0.38091,0.53685 0.53612,-0.97163 0.57063,-0.9933 0.42126,-0.26458 -0.18428,0.89895 -0.81902,1.98437 -1.16045,1.98437 -0.12519,0 -0.29065,-0.241 -0.36768,-0.53557 z m 5.5023,-1.84568 c -0.0899,-0.14552 0.025,-0.26458 0.25551,-0.26458 0.41602,0 0.78114,-0.68833 1.09385,-2.06219 0.15908,-0.69889 0.15321,-0.70282 -0.24624,-0.16522 -0.22506,0.30289 -0.48894,0.86844 -0.5864,1.25677 -0.0975,0.38833 -0.28497,0.70606 -0.41666,0.70606 -0.1317,0 -0.0485,-0.44649 0.185,-0.99219 0.23345,-0.5457 0.48238,-1.13181 0.55317,-1.30246 0.19975,-0.48148 0.82217,-0.623 0.97608,-0.22193 0.19163,0.49941 -0.32525,2.28703 -0.82328,2.84731 -0.46667,0.52498 -0.7537,0.58245 -0.99103,0.19843 z m -73.970479,-1.52135 c -0.01069,-0.83675 -0.05539,-1.93807 -0.09933,-2.4474 -0.121574,-1.40891 -0.458478,-7.85762 -0.64276,-12.30312 -0.560959,-13.53225 1.118179,-39.71421 3.130714,-48.81563 l 0.263273,-1.19062 -0.113927,1.32291 c -0.06266,0.72761 -0.41122,3.70417 -0.774575,6.61459 -1.91511,15.33966 -2.389331,33.22686 -1.374852,51.85833 0.174321,3.20146 0.221372,5.86077 0.104561,5.90958 -0.116811,0.0488 -0.145085,0.19764 -0.06283,0.33073 0.08225,0.13309 0.02347,0.24198 -0.130644,0.24198 -0.16247,0 -0.288361,-0.63921 -0.299627,-1.52135 z m 78.600689,0.10715 c 0,-0.24083 0.10613,-0.43788 0.23585,-0.43788 0.22126,0 1.10119,-1.89921 1.07511,-2.32046 -0.007,-0.1062 -0.29886,0.3427 -0.64951,0.99754 -0.72926,1.36191 -0.86751,1.05486 -0.23585,-0.52381 0.42288,-1.05688 1.1619,-1.45845 1.1619,-0.63136 0,0.84104 -0.61685,2.47542 -1.09894,2.91171 -0.4529,0.40987 -0.48856,0.41018 -0.48856,0.004 z m -71.437514,-7.49738 c 0,-0.16805 -0.0757,-0.50282 -0.16821,-0.74392 -0.12433,-0.32398 -0.0408,-0.41592 0.32015,-0.35237 0.30979,0.0546 0.60832,-0.15587 0.81642,-0.57546 0.83887,-1.69137 6.79845,-6.83634 9.522974,-8.2213 1.39429,-0.70876 1.91259,-0.82745 3.61327,-0.82745 2.63019,0 3.36576,0.18007 5.87145,1.43736 3.85379,1.93374 8.51218,3.0245 14.05157,3.29016 4.18527,0.20072 6.53933,-0.12915 10.13321,-1.41998 4.35316,-1.56353 8.50008,-4.27771 11.60172,-7.59337 1.65998,-1.77452 4.7425,-6.0688 5.31423,-7.40326 0.1795,-0.41899 0.38062,-0.70754 0.44693,-0.64123 0.20945,0.20945 -0.85298,2.16838 -2.42502,4.47126 -1.72344,2.52468 -5.91499,6.80341 -8.0541,8.22163 -4.32798,2.86942 -9.05334,4.56073 -13.3522,4.77906 -2.70668,0.13747 -7.78181,-0.21952 -10.12339,-0.71208 -2.5338,-0.533 -7.13251,-2.14819 -8.25063,-2.89784 -1.14201,-0.76567 -2.51658,-1.06428 -4.76628,-1.03543 -2.02868,0.026 -3.97462,0.70154 -6.140144,2.13147 -2.08277,1.37531 -6.44754,5.48237 -7.52311,7.07893 -0.48886,0.72566 -0.88884,1.18188 -0.88884,1.01382 z M 42.462485,171.0425 c -0.282877,-0.28288 -0.210913,-1.94426 0.08422,-1.94426 0.14552,0 0.274505,0.0893 0.286631,0.19844 0.01212,0.10914 0.05146,0.46222 0.0874,0.78462 0.07481,0.67099 -0.190976,1.22847 -0.458253,0.9612 z m 33.619941,-3.52396 c -2.220699,-4.58367 -4.598406,-6.96429 -8.079844,-8.08973 -0.769638,-0.2488 -1.3429,-0.50881 -1.273913,-0.5778 0.462185,-0.46218 4.805151,1.74467 6.194812,3.14785 0.885113,0.89373 2.716543,3.4178 3.039456,4.18897 0.152337,0.3638 0.622004,1.41033 1.043707,2.32563 1.398196,3.03474 0.624616,2.20199 -0.924218,-0.99492 z m 1.845577,2.17501 c -0.198734,-1.0877 -1.426909,-4.22349 -2.186453,-5.58246 -0.614246,-1.099 -0.622554,-1.15449 -0.102452,-0.68411 0.737621,0.66709 1.460934,2.10423 1.871006,3.71748 0.293286,1.15379 0.348552,1.22142 0.515557,0.63087 0.127677,-0.45148 0.195429,-0.13651 0.213431,0.99218 0.02805,1.7589 -0.09305,2.1194 -0.311089,0.92604 z m 12.132613,-2.7738 c -0.23497,-3.81567 0.46986,-9.70364 1.41786,-11.84442 0.28189,-0.63657 0.28677,-0.63159 0.12986,0.13229 -0.0897,0.43656 -0.34701,1.56765 -0.57184,2.51354 -0.27581,1.16038 -0.43355,3.3845 -0.48493,6.83755 -0.0419,2.81477 -0.12808,5.16971 -0.19156,5.23319 -0.0635,0.0635 -0.1982,-1.22899 -0.29939,-2.87215 z m -47.778485,1.51703 c 0,-0.21828 0.04679,-0.39687 0.103984,-0.39687 0.05719,0 0.172516,0.17859 0.256281,0.39687 0.08376,0.21829 0.03697,0.39688 -0.103984,0.39688 -0.140954,0 -0.256281,-0.17859 -0.256281,-0.39688 z m 48.608595,-1.60126 c -0.18016,-2.38213 -0.0498,-4.465 0.47097,-7.52686 0.41921,-2.46455 1.93021,-7.55134 2.17143,-7.31012 0.14046,0.14046 -0.29804,2.17431 -0.66335,3.07679 -0.0884,0.21828 -0.17676,0.89752 -0.19644,1.50943 -0.0197,0.61191 -0.19843,1.30853 -0.39721,1.54805 -0.19879,0.23951 -0.38282,0.58125 -0.40897,0.75941 -0.30224,2.05932 -0.44874,3.97452 -0.50313,6.57769 -0.0358,1.7152 -0.12281,3.17619 -0.19326,3.24664 -0.0704,0.0704 -0.19647,-0.77601 -0.28004,-1.88103 z m 0.75321,0.86225 c 0.0994,-0.26094 0.2473,-0.40778 0.32876,-0.32632 0.0815,0.0815 1.7e-4,0.29495 -0.18065,0.47443 -0.26131,0.25936 -0.2917,0.22897 -0.14811,-0.14811 z m 0.67669,-0.61182 c 0.14144,-0.41352 3.39165,-3.91393 3.51325,-3.7837 0.0552,0.0591 -0.73523,1.00042 -1.75648,2.09183 -1.02125,1.0914 -1.81179,1.85275 -1.75677,1.69187 z m -14.584327,-3.19118 c 0,-1.69774 0.05035,-3.03645 0.111895,-2.97491 0.273836,0.27383 0.433454,6.06172 0.167172,6.06172 -0.179753,0 -0.279067,-1.09852 -0.279067,-3.08681 z m 41.972271,0.55413 c -2.55551,-0.39742 -6.94629,-1.84416 -10.48685,-3.45536 -2.09699,-0.95427 -2.40853,-1.02187 -4.61052,-1.0004 -1.72253,0.0168 -2.1879,-0.0437 -1.71979,-0.22358 0.35297,-0.13563 1.53855,-0.1888 2.63461,-0.11814 1.65924,0.10696 2.43034,0.3329 4.60627,1.34972 4.77299,2.23043 8.95685,3.24981 14.21971,3.46456 4.82032,0.19669 8.31848,-0.48085 12.65097,-2.4503 4.5369,-2.06237 8.81301,-6.00065 12.9022,-11.88287 0.20461,-0.29433 0.18954,-0.17295 -0.0388,0.31259 -0.60109,1.27813 -2.76091,4.09149 -4.63927,6.04307 -3.92934,4.08252 -8.91474,6.82979 -14.47978,7.97928 -2.38484,0.4926 -7.81052,0.48348 -11.03875,-0.0186 z m -23.186854,-1.5304 c 0,-0.3172 3.579794,-2.55151 4.088024,-2.55151 0.37495,0 0.26405,0.13548 -0.39406,0.48141 -1.447024,0.76063 -3.002724,1.66745 -3.363234,1.96043 -0.1819,0.14784 -0.33073,0.19719 -0.33073,0.10967 z m -23.038777,-1.38493 c -2.010386,-2.14853 -4.491265,-3.19161 -7.779054,-3.27069 -1.015275,-0.0244 -1.906072,-0.10451 -1.979547,-0.17799 -0.07347,-0.0735 1.31703,-0.10521 3.090011,-0.0705 1.772981,0.0347 3.171132,0.14796 3.107002,0.25173 -0.06413,0.10376 0.09042,0.25985 0.343445,0.34686 0.946134,0.32536 2.391077,1.39301 3.358653,2.48165 1.065773,1.19913 0.939604,1.5933 -0.14051,0.43897 z m 85.745031,0.22113 c 0,-0.14552 0.1786,-0.4128 0.39688,-0.59396 0.22139,-0.18373 0.39687,-0.21238 0.39687,-0.0648 0,0.14552 -0.17859,0.4128 -0.39687,0.59396 -0.22139,0.18373 -0.39688,0.21239 -0.39688,0.0648 z m 1.73713,-1.45385 0.18528,-0.59532 -0.6031,0.52917 c -0.59267,0.52001 -0.59181,0.51112 0.0498,-0.51338 1.079,-1.723 1.79968,-1.39759 0.8731,0.39423 -0.47734,0.92306 -0.76783,1.02964 -0.50504,0.1853 z m -83.472495,-0.61736 c 0.0127,-0.30823 0.07539,-0.37092 0.15985,-0.15986 0.07643,0.191 0.06703,0.4192 -0.02088,0.50712 -0.08792,0.0879 -0.150453,-0.0684 -0.138965,-0.34726 z m -22.431302,-0.40288 c -0.465778,-0.1347 -0.931794,-0.38233 -1.03559,-0.55027 -0.128421,-0.20779 -0.03716,-0.2472 0.285623,-0.12333 1.970778,0.75625 4.798759,0.85077 9.269754,0.30982 0.679972,-0.0823 0.490789,0.008 -0.529166,0.25264 -1.76833,0.42404 -6.672745,0.49226 -7.990621,0.11114 z m -0.09757,-0.98568 c -2.608765,-0.78156 -6.765605,-4.19212 -8.600052,-7.05606 -0.27963,-0.43657 0.373492,0.0992 1.451383,1.19062 1.077891,1.09141 1.937864,2.08252 1.911048,2.20248 -0.02681,0.11996 0.05231,0.15565 0.175827,0.0793 0.123518,-0.0763 0.811077,0.3733 1.527908,0.99919 1.635522,1.42804 2.424136,1.8277 4.742913,2.40363 1.415581,0.3516 2.506834,0.42732 4.630208,0.32129 1.889141,-0.0943 2.397133,-0.0678 1.5875,0.0831 -1.996675,0.37197 -5.823498,0.25679 -7.426735,-0.22353 z m 22.014691,-1.16908 c -0.74427,-3.64277 -0.825621,-4.07901 -0.97445,-5.22552 -0.08501,-0.65485 -0.269319,-2.32172 -0.409585,-3.70417 -0.385517,-3.7996 -2.698502,-10.23488 -4.09465,-11.39231 -0.253198,-0.20991 -1.087038,-1.16688 -1.852977,-2.12661 -0.76594,-0.95973 -1.759443,-1.89692 -2.20779,-2.08262 -0.448344,-0.18572 -0.81517,-0.43106 -0.81517,-0.54521 0,-0.11415 -0.531977,-0.55992 -1.182172,-0.99059 -0.650195,-0.43067 -1.135121,-0.83009 -1.077608,-0.8876 0.05751,-0.0575 -0.184566,-0.24101 -0.537946,-0.40778 -0.353377,-0.16677 -0.576646,-0.19665 -0.496149,-0.0664 0.0805,0.13025 -0.03773,0.16617 -0.262739,0.0798 -0.225005,-0.0863 -0.330719,-0.2838 -0.234921,-0.4388 0.109225,-0.17674 0.01,-0.21883 -0.266105,-0.11288 -0.242152,0.0929 -0.440277,0.0536 -0.440277,-0.0873 0,-0.14096 -0.178594,-0.25628 -0.396875,-0.25628 -0.218281,0 -0.396875,-0.1318 -0.396875,-0.2929 0,-0.16108 -0.166502,-0.22899 -0.370004,-0.1509 -0.469093,0.18001 -3.396417,-0.99325 -3.133696,-1.25598 0.107429,-0.10742 -0.131855,-0.11321 -0.531739,-0.0128 -0.487391,0.12232 -0.727061,0.0789 -0.727061,-0.13181 0,-0.20856 -0.256016,-0.25806 -0.761019,-0.14714 -0.52552,0.11542 -0.893961,0.0342 -1.190625,-0.26246 -0.236283,-0.23627 -0.429606,-0.30577 -0.429606,-0.15442 0,0.29896 -0.830742,0.0742 -1.078619,-0.29178 -0.08392,-0.12391 -0.560166,-0.27817 -1.058334,-0.3428 -2.861818,-0.37129 -4.700905,-0.68774 -5.388581,-0.92721 -0.85168,-0.29658 -2.172777,-1.61354 -2.794627,-2.78587 l -0.395465,-0.74554 -0.08651,0.77426 c -0.04758,0.42585 -0.20161,0.89259 -0.342297,1.03719 -0.164949,0.16955 -0.207738,-0.53519 -0.120481,-1.98437 0.110959,-1.84279 0.08754,-2.0568 -0.130098,-1.18897 -1.4874,5.93104 -1.615956,17.97143 -0.245774,23.01875 1.110694,4.09145 2.326135,7.31785 3.349159,8.89041 1.252818,1.92579 3.974013,4.36876 6.376628,5.72467 0.834964,0.47121 1.322271,0.85816 1.082903,0.8599 -0.570093,0.004 -4.244496,-2.61952 -5.865596,-4.18824 -1.299443,-1.25745 -3.35648,-4.04464 -3.35648,-4.54786 0,-0.15321 -0.413401,-1.46624 -0.918671,-2.91784 -2.150954,-6.17953 -2.677591,-14.43637 -1.465768,-22.98084 0.139145,-0.98111 0.20497,-3.20324 0.146275,-4.93806 -0.09329,-2.75746 -0.06022,-3.08766 0.262951,-2.62505 0.203314,0.29104 0.463024,0.65288 0.577125,0.80409 0.114104,0.1512 0.243938,0.44886 0.288518,0.66145 0.259521,1.23758 1.889352,4.68512 2.616515,5.53465 1.009247,1.17908 1.81974,1.53873 3.784721,1.67948 0.800365,0.0573 1.633803,0.16894 1.852084,0.24803 0.408077,0.14785 2.780403,0.65304 4.13294,0.88011 0.419018,0.0703 1.059508,0.24074 1.42331,0.37865 0.363802,0.1379 0.959115,0.30157 1.322917,0.36371 0.985004,0.16823 3.952523,1.33348 5.159375,2.02592 0.582083,0.33398 1.407787,0.78608 1.834896,1.00468 1.250582,0.64007 5.538764,5.05784 6.722504,6.92568 0.599025,0.9452 1.192811,1.84329 1.319525,1.99575 0.421564,0.50722 1.655615,3.83003 2.187877,5.8911 0.743662,2.87965 2.36124,14.07232 2.033752,14.07232 -0.05432,0 -0.250812,-0.74414 -0.43664,-1.65364 z m 15.327862,-4.49103 c -0.0848,-0.90667 2.88393,-6.79584 4.70491,-9.33345 3.079954,-4.29203 8.138274,-8.30175 12.025744,-9.5328 2.74597,-0.86956 3.15205,-0.8145 0.8098,0.10981 -3.16443,1.24876 -6.82753,3.5074 -9.38718,5.78805 -1.217964,1.08522 -3.515694,3.98367 -4.454664,5.61931 -0.70228,1.22333 -2.07899,4.02592 -3.37926,6.87917 -0.16579,0.3638 -0.3095,0.57526 -0.31935,0.46991 z m -46.994159,-3.14033 c -0.232749,-0.45009 -0.376206,-0.86531 -0.318797,-0.92272 0.05741,-0.0574 0.302387,0.31084 0.544396,0.81834 0.544137,1.14107 0.355603,1.2283 -0.225599,0.10438 z m 124.681083,0.11829 c -0.4808,-0.4808 0.0834,-4.06245 0.6399,-4.06245 0.14727,0 0.1871,-0.13051 0.0885,-0.29002 -0.11125,-0.18001 0.008,-0.25445 0.31511,-0.19624 0.67585,0.12821 0.74618,1.57036 0.15833,3.24691 -0.44341,1.26464 -0.82534,1.67832 -1.20186,1.3018 z m 1.09891,-2.41868 c 0.31706,-1.41114 0.0498,-1.67313 -0.3973,-0.38942 -0.41455,1.19035 -0.48163,2.5627 -0.0928,1.89773 0.13502,-0.23088 0.35555,-0.90962 0.49006,-1.50831 z m -75.481644,-0.0849 c 2.57684,-4.98307 7.116244,-9.2937 12.420624,-11.79466 2.97123,-1.40091 5.30175,-2.23365 5.55168,-1.98372 0.0767,0.0767 -0.67238,0.39691 -1.66468,0.71152 -0.9923,0.31461 -3.22532,1.32163 -4.96226,2.23782 -2.62165,1.38285 -3.55507,2.05323 -5.49524,3.94663 -2.355314,2.29852 -4.763224,5.25613 -5.572684,6.84488 -0.24097,0.47294 -0.49765,0.8599 -0.57041,0.8599 -0.0728,0 0.0591,-0.37007 0.29297,-0.82237 z m 55.757344,0.2932 c 0.0645,-0.21828 0.45178,-1.46844 0.86058,-2.77813 0.4088,-1.30968 0.71423,-2.54202 0.67873,-2.73853 -0.0355,-0.1965 0.0553,-0.28322 0.20172,-0.19272 0.14644,0.0905 0.24983,-0.0536 0.22974,-0.32024 -0.0387,-0.51446 1.1013,-2.55082 1.31079,-2.34134 0.0679,0.068 -0.012,0.37672 -0.17754,0.68615 -0.16561,0.30943 -0.8328,2.06144 -1.48266,3.89336 -0.64986,1.83192 -1.30692,3.52371 -1.46011,3.75954 -0.21389,0.32925 -0.25132,0.33666 -0.16125,0.0319 z M 44.164906,146.56415 c -0.01688,-0.24276 -0.09921,-0.65948 -0.182962,-0.92604 -0.144325,-0.45937 -0.136493,-0.46007 0.150093,-0.0133 0.166299,0.25923 0.248629,0.67595 0.182959,0.92604 -0.107563,0.40964 -0.122438,0.41096 -0.15009,0.0133 z m 108.862364,-0.8268 c 0.0994,-0.26094 0.24731,-0.40778 0.32877,-0.32632 0.0815,0.0815 1.7e-4,0.29496 -0.18065,0.47444 -0.26131,0.25936 -0.2917,0.22897 -0.14812,-0.14812 z M 42.982986,142.44147 c -0.219943,-0.98226 -0.478007,-2.26219 -0.573479,-2.84427 -0.09547,-0.58208 -0.236098,-1.29646 -0.312507,-1.5875 -0.101193,-0.38544 -0.05798,-0.4527 0.159107,-0.24764 0.259252,0.24489 0.864809,2.90528 1.275913,5.60545 0.233831,1.53581 -0.138358,0.90805 -0.549034,-0.92604 z m 111.910134,-1.65364 c 0.42187,-1.65134 1.2501,-3.47088 2.41248,-5.30001 1.7047,-2.68253 2.15148,-3.29034 2.30544,-3.13637 0.0719,0.0719 -0.42201,0.9545 -1.09749,1.96141 -0.67549,1.00691 -1.80444,3.02452 -2.50878,4.48358 -0.70435,1.45906 -1.20459,2.35519 -1.11165,1.99139 z M 42.035545,135.49616 c -0.123166,-3.73905 0.01349,-7.27724 0.372983,-9.65729 l 0.359677,-2.38125 -0.138655,2.11666 c -0.07626,1.16417 -0.226401,4.31933 -0.333645,7.01146 -0.107246,2.69214 -0.224409,4.00182 -0.26036,2.91042 z m 113.752845,1.1998 c 0,-0.27678 1.06248,-1.99355 1.23378,-1.99355 0.0728,0 -0.13622,0.44648 -0.4644,0.99219 -0.73105,1.2156 -0.76938,1.26548 -0.76938,1.00136 z m -8.11095,-1.99068 c -0.13152,-0.13145 -0.96118,-0.22955 -2.86926,-0.33926 -0.58208,-0.0335 -1.19642,-0.15046 -1.36519,-0.25997 -0.16876,-0.10951 -0.49618,-0.12645 -0.7276,-0.0376 -0.23141,0.0888 -0.42075,0.0334 -0.42075,-0.12313 0,-0.15652 -0.17859,-0.21605 -0.39688,-0.13229 -0.21828,0.0838 -0.39687,0.046 -0.39687,-0.0839 0,-0.12991 -0.20836,-0.24979 -0.46302,-0.2664 -0.25466,-0.0166 -0.82021,-0.0919 -1.25677,-0.16732 -3.29521,-0.56922 -4.98827,-0.70585 -10.63943,-0.85858 -6.22466,-0.16823 -7.41932,-0.10329 -12.99605,0.70645 -1.0668,0.15489 -1.99585,0.22542 -2.06455,0.15672 -0.11407,-0.11406 3.21872,-0.77313 5.4594,-1.0796 2.99828,-0.4101 12.7,-0.74997 12.7,-0.44491 0,0.11607 0.47093,0.18447 1.04651,0.152 0.57558,-0.0325 1.6769,0.0349 2.44739,0.14961 0.77049,0.11476 1.99621,0.276 2.72381,0.3583 0.7276,0.0823 1.62057,0.20091 1.98438,0.26358 0.3638,0.0627 1.07817,0.17338 1.5875,0.24602 0.50932,0.0727 1.10463,0.19439 1.32291,0.27053 0.21828,0.0761 0.8136,0.19871 1.32292,0.27239 0.50932,0.0737 1.79703,0.31756 2.86157,0.54196 1.06454,0.2244 2.24524,0.408 2.62378,0.408 0.37854,0 0.59893,0.0893 0.48976,0.19843 -0.21788,0.21781 -2.76553,0.27693 -2.97356,0.069 z m 3.68421,-0.45081 c 0.25744,-0.0671 0.61462,-0.0627 0.79375,0.01 0.17913,0.0725 -0.0315,0.12736 -0.46805,0.12197 -0.43656,-0.005 -0.58313,-0.0647 -0.3257,-0.13178 z m 2.96414,-0.67 c 2.10089,-0.60187 4.03492,-1.76665 5.54049,-3.33681 0.56935,-0.59377 1.12146,-1.02627 1.2269,-0.9611 0.10544,0.0652 0.17539,-0.0291 0.15544,-0.20939 -0.043,-0.38822 0.44311,-0.60953 0.56112,-0.25549 0.0448,0.1344 -0.16081,0.53029 -0.45692,0.87974 -0.36258,0.42789 -0.48577,0.48417 -0.37727,0.17234 0.30629,-0.88019 -0.11352,-0.4547 -1.63154,1.65365 -0.8382,1.16417 -1.57829,2.11667 -1.64463,2.11667 -0.0663,0 -0.0604,-0.23015 0.0131,-0.51144 0.11885,-0.4545 0.0561,-0.48191 -0.56397,-0.24617 -0.38374,0.1459 -0.89611,0.44481 -1.13859,0.66426 -0.2573,0.23285 -1.08379,0.43297 -1.98486,0.4806 l -1.54398,0.0816 z m -42.45824,-0.57101 c 0,-0.0558 0.29406,-0.15766 0.65346,-0.22636 0.35939,-0.0687 0.59049,-0.023 0.51355,0.10145 -0.13549,0.21922 -1.16701,0.32963 -1.16701,0.12491 z m 48.41876,-2.01522 c 0.15576,-0.29104 0.34273,-0.52916 0.41549,-0.52916 0.0728,0 0.005,0.23812 -0.15091,0.52916 -0.15576,0.29104 -0.34273,0.52917 -0.41549,0.52917 -0.0728,0 -0.005,-0.23813 0.15091,-0.52917 z M 73.636726,118.82579 c 0.264197,-0.29194 0.537742,-0.47341 0.607877,-0.40327 0.177782,0.17778 -0.482129,0.93405 -0.815041,0.93405 -0.150257,0 -0.05703,-0.23885 0.207164,-0.53078 z m 51.482174,-5.9279 c -0.33339,-0.35488 -0.54809,-0.85375 -0.48395,-1.12448 0.12001,-0.50653 0.17123,-0.43614 0.56038,0.77014 0.0821,0.25467 0.28674,0.46302 0.45465,0.46302 0.20862,0 0.19031,-0.1466 -0.0578,-0.46302 -0.32911,-0.41964 -0.31975,-0.429 0.0999,-0.0999 0.47468,0.37226 0.63587,1.09208 0.24456,1.09208 -0.12015,0 -0.48812,-0.28703 -0.81769,-0.63785 z m 40.51186,-1.61805 c -0.62566,-1.2878 -0.78324,-3.4093 -0.27649,-3.72249 0.19183,-0.11856 0.23354,-0.0724 0.11211,0.12407 -0.1117,0.18073 0.0574,0.51589 0.40035,0.79361 0.59258,0.47984 1.30312,2.33904 1.27682,3.34092 -0.0149,0.56943 0.0133,0.62108 -0.97092,-1.77873 -0.22216,-0.54173 -0.50335,-0.92353 -0.62486,-0.84843 -0.25622,0.15835 0.51942,2.27186 0.93582,2.55 0.19462,0.12999 0.19611,0.2719 0.005,0.46315 -0.19125,0.19125 -0.45403,-0.0913 -0.85768,-0.9221 z m -79.27932,-0.588 c 0.05452,-0.25487 0.348562,-1.77308 0.653433,-3.37381 1.785463,-9.374547 5.084243,-18.404752 9.327103,-25.532286 1.43554,-2.411554 4.624484,-6.812011 5.383924,-7.429328 0.25433,-0.206734 -0.13882,0.398026 -0.87366,1.343911 -6.660864,8.573817 -11.773334,21.088835 -13.966071,34.188113 -0.09049,0.5406 -0.26788,1.04678 -0.394192,1.12484 -0.126315,0.0781 -0.185057,-0.0666 -0.130537,-0.32144 z M 99.646506,99.380533 c 0.0595,-0.50932 0.21414,-0.92604 0.34374,-0.92604 0.272554,0 0.295154,0.41243 0.0689,1.25677 -0.248562,0.927497 -0.532912,0.699587 -0.412622,-0.33073 z M 60.935257,95.808661 c 0.08994,-0.145521 0.216027,-0.264583 0.280199,-0.264583 0.06417,0 0.116676,0.119062 0.116676,0.264583 0,0.145521 -0.12609,0.264583 -0.280199,0.264583 -0.154109,0 -0.206613,-0.119062 -0.116676,-0.264583 z m 0.891556,-1.242036 c 0.319304,-0.614016 0.787233,-1.00383 0.977088,-0.813975 0.06251,0.06251 -0.1997,0.401849 -0.582679,0.754099 -0.663874,0.610609 -0.682255,0.613397 -0.394409,0.05988 z m 1.181084,-0.458481 c 0.166685,-0.3532 0.344948,-0.600297 0.396139,-0.549106 0.164214,0.164214 -0.247327,1.19129 -0.47734,1.19129 -0.122023,0 -0.08548,-0.288984 0.0812,-0.642184 z m 78.668573,-11.95504 c -1.79419,-1.122268 -1.82365,-1.557003 -0.0345,-0.508471 1.65373,0.96915 1.83292,0.643383 0.22017,-0.400259 -0.78495,-0.507956 -1.02919,-0.759983 -0.62586,-0.645819 1.18219,0.334627 3.06683,2.510106 2.17453,2.510106 -0.11369,0 -0.89416,-0.430001 -1.73437,-0.955557 z M 107.23735,69.64249 c -0.65854,-0.144688 -0.7112,-0.20696 -0.30909,-0.365571 0.70769,-0.279153 1.55713,-0.233553 1.36742,0.07341 -0.0968,0.156619 0.19374,0.260758 0.71199,0.255208 l 0.87551,-0.0094 -0.66146,-0.405774 c -0.36993,-0.226939 -0.44656,-0.338918 -0.17386,-0.254079 0.26818,0.08343 0.7742,0.223625 1.12448,0.311541 1.89889,0.476589 -0.86844,0.848687 -2.93499,0.394643 z"
       id="path865" />
  </g>
</svg>
