M48
; DRILL file {KiCad (6.0.4)} date Thu May  5 21:52:30 2022
; FORMAT={-:-/ absolute / inch / decimal}
; #@! TF.CreationDate,2022-05-05T21:52:30+02:00
; #@! TF.GenerationSoftware,Kicad,Pcbnew,(6.0.4)
; #@! TF.FileFunction,NonPlated,1,2,NPTH
FMAT,2
INCH
; #@! TA.AperFunction,NonPlated,NPTH,ComponentDrill
T1C0.0335
; #@! TA.AperFunction,NonPlated,NPTH,ComponentDrill
T2C0.0669
; #@! TA.AperFunction,NonPlated,NPTH,ComponentDrill
T3C0.0866
; #@! TA.AperFunction,NonPlated,NPTH,ComponentDrill
T4C0.1575
%
G90
G05
T1
X7.34Y-3.4409
X7.34Y-3.5591
T2
X3.082Y-2.6737
X3.1445Y-3.4237
X3.207Y-4.1737
X3.4805Y-2.6388
X3.543Y-3.3888
X3.6055Y-4.1388
X3.9875Y-2.0
X3.9875Y-2.75
X3.9875Y-3.5
X4.3875Y-2.0
X4.3875Y-2.75
X4.3875Y-3.5
X4.7375Y-1.625
X4.7375Y-2.375
X4.7375Y-3.125
X5.1375Y-1.625
X5.1375Y-2.375
X5.1375Y-3.125
X5.4875Y-1.8438
X5.4875Y-2.5938
X5.4875Y-3.3438
X5.8875Y-1.8438
X5.8875Y-2.5938
X5.8875Y-3.3438
X5.9312Y-4.375
X6.2375Y-2.0
X6.2375Y-2.75
X6.2375Y-3.5
X6.3312Y-4.375
X6.6375Y-2.0
X6.6375Y-2.75
X6.6375Y-3.5
X6.9795Y-4.6932
X7.083Y-4.3068
T3
X2.7812Y-2.4062
X2.9688Y-4.5
X4.655Y-3.59
X5.415Y-1.37
X6.915Y-1.845
X6.915Y-3.135
X7.37Y-5.09
X7.62Y-4.16
X7.83Y-1.845
X7.83Y-3.135
T4
X3.2812Y-2.6562
X3.3438Y-3.4062
X3.4062Y-4.1562
X4.1875Y-2.0
X4.1875Y-2.75
X4.1875Y-3.5
X4.9375Y-1.625
X4.9375Y-2.375
X4.9375Y-3.125
X5.6875Y-1.8438
X5.6875Y-2.5938
X5.6875Y-3.3438
X6.1312Y-4.375
X6.4375Y-2.0
X6.4375Y-2.75
X6.4375Y-3.5
X7.0312Y-4.5
X7.0312Y-4.5
T0
M30
